<?xml version="1.0" encoding="UTF-8" standalone="no"?>
<svg
   xmlns:ooo="http://xml.openoffice.org/svg/export"
   xmlns:dc="http://purl.org/dc/elements/1.1/"
   xmlns:cc="http://creativecommons.org/ns#"
   xmlns:rdf="http://www.w3.org/1999/02/22-rdf-syntax-ns#"
   xmlns:svg="http://www.w3.org/2000/svg"
   xmlns="http://www.w3.org/2000/svg"
   id="svg2"
   xml:space="preserve"
   stroke-linejoin="round"
   stroke-width="28.222"
   fill-rule="evenodd"
   preserveAspectRatio="xMidYMid"
   viewBox="8733 13498 4477 1023"
   height="10.23mm"
   width="44.77mm"
   version="1.2"><metadata
     id="metadata179"><rdf:RDF><cc:Work
         rdf:about=""><dc:format>image/svg+xml</dc:format><dc:type
           rdf:resource="http://purl.org/dc/dcmitype/StillImage" /><dc:title></dc:title></cc:Work></rdf:RDF></metadata><defs
     id="defs4"
     class="ClipPathGroup"><clipPath
       clipPathUnits="userSpaceOnUse"
       id="presentation_clip_path"><rect
         id="rect7"
         height="1023"
         width="4477"
         y="13498"
         x="8733" /></clipPath></defs><defs
     id="defs9"
     class="TextShapeIndex"><g
       id="g11"
       ooo:id-list="id3 id4 id5 id6 id7 id8 id9 id10 id11 id12 id13 id14 id15 id16 id17 id18 id19 id20 id21 id22 id23 id24"
       ooo:slide="id1" /></defs><defs
     id="defs13"
     class="EmbeddedBulletChars"><g
       transform="scale(0.00048828125,-0.00048828125)"
       id="bullet-char-template(57356)"><path
         id="path16"
         d="M 580,1141 L 1163,571 580,0 -4,571 580,1141 Z" /></g><g
       transform="scale(0.00048828125,-0.00048828125)"
       id="bullet-char-template(57354)"><path
         id="path19"
         d="M 8,1128 L 1137,1128 1137,0 8,0 8,1128 Z" /></g><g
       transform="scale(0.00048828125,-0.00048828125)"
       id="bullet-char-template(10146)"><path
         id="path22"
         d="M 174,0 L 602,739 174,1481 1456,739 174,0 Z M 1358,739 L 309,1346 659,739 1358,739 Z" /></g><g
       transform="scale(0.00048828125,-0.00048828125)"
       id="bullet-char-template(10132)"><path
         id="path25"
         d="M 2015,739 L 1276,0 717,0 1260,543 174,543 174,936 1260,936 717,1481 1274,1481 2015,739 Z" /></g><g
       transform="scale(0.00048828125,-0.00048828125)"
       id="bullet-char-template(10007)"><path
         id="path28"
         d="M 0,-2 C -7,14 -16,27 -25,37 L 356,567 C 262,823 215,952 215,954 215,979 228,992 255,992 264,992 276,990 289,987 310,991 331,999 354,1012 L 381,999 492,748 772,1049 836,1024 860,1049 C 881,1039 901,1025 922,1006 886,937 835,863 770,784 769,783 710,716 594,584 L 774,223 C 774,196 753,168 711,139 L 727,119 C 717,90 699,76 672,76 641,76 570,178 457,381 L 164,-76 C 142,-110 111,-127 72,-127 30,-127 9,-110 8,-76 1,-67 -2,-52 -2,-32 -2,-23 -1,-13 0,-2 Z" /></g><g
       transform="scale(0.00048828125,-0.00048828125)"
       id="bullet-char-template(10004)"><path
         id="path31"
         d="M 285,-33 C 182,-33 111,30 74,156 52,228 41,333 41,471 41,549 55,616 82,672 116,743 169,778 240,778 293,778 328,747 346,684 L 369,508 C 377,444 397,411 428,410 L 1163,1116 C 1174,1127 1196,1133 1229,1133 1271,1133 1292,1118 1292,1087 L 1292,965 C 1292,929 1282,901 1262,881 L 442,47 C 390,-6 338,-33 285,-33 Z" /></g><g
       transform="scale(0.00048828125,-0.00048828125)"
       id="bullet-char-template(9679)"><path
         id="path34"
         d="M 813,0 C 632,0 489,54 383,161 276,268 223,411 223,592 223,773 276,916 383,1023 489,1130 632,1184 813,1184 992,1184 1136,1130 1245,1023 1353,916 1407,772 1407,592 1407,412 1353,268 1245,161 1136,54 992,0 813,0 Z" /></g><g
       transform="scale(0.00048828125,-0.00048828125)"
       id="bullet-char-template(8226)"><path
         id="path37"
         d="M 346,457 C 273,457 209,483 155,535 101,586 74,649 74,723 74,796 101,859 155,911 209,963 273,989 346,989 419,989 480,963 531,910 582,859 608,796 608,723 608,648 583,586 532,535 482,483 420,457 346,457 Z" /></g><g
       transform="scale(0.00048828125,-0.00048828125)"
       id="bullet-char-template(8211)"><path
         id="path40"
         d="M -4,459 L 1135,459 1135,606 -4,606 -4,459 Z" /></g></defs><defs
     id="defs42"
     class="TextEmbeddedBitmaps" /><g
     id="g44"
     class="SlideGroup"><g
       id="g46"><g
         transform="translate(0,-3.6875463e-6)"
         class="com.sun.star.drawing.ClosedBezierShape"
         id="g53"><g
           id="id3"><path
             d="m 9823,13750 c 45,0 91,0 136,0 -23,-71 -46,-143 -69,-214 -22,71 -45,143 -67,214 z m -12,36 c -13,41 -26,83 -39,125 -15,0 -30,0 -45,0 44,-136 89,-271 133,-406 20,0 40,0 60,0 46,135 92,270 138,406 -15,0 -31,0 -46,0 -14,-42 -28,-84 -42,-125 -53,0 -106,0 -159,0 z"
             id="path56"
             style="fill:#000000;stroke:none" /></g></g><g
         transform="translate(0,-3.6875463e-6)"
         class="com.sun.star.drawing.ClosedBezierShape"
         id="g58"><g
           id="id4"><path
             d="m 10424,13911 c -13,0 -26,0 -39,0 -1,-17 -2,-34 -3,-50 -22,26 -61,57 -124,57 -90,0 -128,-61 -128,-137 0,-92 0,-184 0,-276 15,0 29,0 44,0 0,92 0,185 0,277 0,56 23,101 93,101 60,0 94,-34 114,-66 0,-104 0,-208 0,-312 14,0 29,0 43,0 0,135 0,270 0,406 z"
             id="path61"
             style="fill:#000000;stroke:none" /></g></g><g
         transform="translate(0,-3.6875463e-6)"
         class="com.sun.star.drawing.ClosedBezierShape"
         id="g63"><g
           id="id5"><path
             d="m 10681,13541 c 0,123 0,246 0,370 -15,0 -29,0 -44,0 0,-124 0,-247 0,-370 -40,0 -81,0 -121,0 0,-12 0,-24 0,-36 96,0 191,0 287,0 0,12 0,24 0,36 -41,0 -81,0 -122,0 z"
             id="path66"
             style="fill:#000000;stroke:none" /></g></g><g
         transform="translate(0,-3.6875463e-6)"
         class="com.sun.star.drawing.ClosedBezierShape"
         id="g68"><g
           id="id6"><path
             d="m 10907,13664 c 0,30 0,60 0,91 0,71 34,128 115,128 81,0 115,-57 115,-128 0,-31 0,-61 0,-91 0,-75 -34,-131 -115,-131 -80,0 -115,55 -115,131 z m 273,90 c 0,91 -49,164 -158,164 -110,0 -158,-73 -158,-164 0,-30 0,-60 0,-90 0,-96 49,-166 158,-166 110,0 158,72 158,166 0,30 0,60 0,90 z"
             id="path71"
             style="fill:#000000;stroke:none" /></g></g><g
         transform="translate(0,-3.6875463e-6)"
         class="com.sun.star.drawing.ClosedBezierShape"
         id="g73"><g
           id="id7"><path
             d="m 11530,13666 c 0,-78 -42,-126 -124,-126 -23,0 -47,0 -70,0 0,112 0,224 0,336 19,0 39,0 58,0 89,0 136,-48 136,-137 0,-25 0,-49 0,-73 z m 43,72 c 0,106 -63,173 -179,173 -34,0 -67,0 -101,0 0,-136 0,-271 0,-406 39,0 77,0 116,0 109,0 164,65 164,162 0,24 0,47 0,71 z"
             id="path76"
             style="fill:#000000;stroke:none" /></g></g><g
         transform="translate(0,-3.6875463e-6)"
         class="com.sun.star.drawing.ClosedBezierShape"
         id="g78"><g
           id="id8"><path
             d="m 11729,13684 c 55,0 109,0 164,0 0,12 0,24 0,36 -55,0 -109,0 -164,0 0,52 0,104 0,156 59,0 118,0 177,0 0,11 0,23 0,35 -74,0 -147,0 -221,0 0,-136 0,-271 0,-406 74,0 147,0 221,0 0,12 0,23 0,35 -59,0 -118,0 -177,0 0,48 0,96 0,144 z"
             id="path81"
             style="fill:#000000;stroke:none" /></g></g><g
         transform="translate(0,-3.6875463e-6)"
         class="com.sun.star.drawing.ClosedBezierShape"
         id="g83"><g
           id="id9"><path
             d="m 12020,13799 c 3,45 30,83 109,83 78,0 98,-39 98,-69 0,-5 0,-9 0,-13 0,-42 -24,-57 -86,-76 -19,-7 -39,-14 -58,-20 -63,-20 -89,-47 -89,-96 0,-4 0,-9 0,-13 0,-43 37,-97 136,-97 93,0 138,50 141,114 -14,0 -28,0 -42,0 -3,-39 -26,-79 -99,-79 -70,0 -92,35 -92,62 0,4 0,8 0,12 0,30 18,47 74,65 20,6 39,13 59,19 66,21 100,48 100,106 0,4 0,9 0,14 0,55 -41,107 -142,107 -96,0 -146,-48 -151,-119 14,0 28,0 42,0 z"
             id="path86"
             style="fill:#000000;stroke:none" /></g></g><g
         transform="translate(0,-3.6875463e-6)"
         class="com.sun.star.drawing.ClosedBezierShape"
         id="g88"><g
           id="id10"><path
             d="m 12669,13911 c -5,3 -14,4 -23,4 -27,0 -43,-9 -63,-37 -37,-54 -73,-108 -110,-162 -19,24 -39,48 -58,72 0,41 0,82 0,123 -14,0 -28,0 -42,0 0,-136 0,-271 0,-406 14,0 28,0 42,0 0,75 0,149 0,224 60,-75 119,-149 179,-224 16,0 31,0 47,0 -47,60 -95,120 -142,180 41,58 81,116 122,175 12,16 20,22 37,22 4,0 9,-1 12,-1 0,10 -1,20 -1,30 z"
             id="path91"
             style="fill:#000000;stroke:none" /></g></g><g
         transform="translate(0,-3.6875463e-6)"
         class="com.sun.star.drawing.ClosedBezierShape"
         id="g93"><g
           id="id11"><path
             d="m 12742,13546 c 0,-1 0,-3 0,-4 0,-6 -5,-8 -12,-8 -3,0 -5,0 -8,0 0,7 0,14 0,21 3,0 5,0 8,0 7,0 12,-3 12,-9 z m 11,33 1,-1 c 0,2 0,4 0,6 -1,0 -2,0 -4,0 -4,0 -6,-1 -9,-5 -3,-6 -6,-12 -9,-18 -1,0 -1,0 -2,0 -3,0 -5,0 -8,0 0,8 0,15 0,23 -3,0 -5,0 -8,0 0,-19 0,-38 0,-57 6,0 11,0 17,0 11,0 19,6 19,15 0,1 0,3 0,4 0,7 -4,12 -11,14 3,5 6,11 9,16 1,2 2,3 5,3 z m 18,-31 c 0,-19 -16,-35 -41,-35 -23,0 -41,16 -41,35 0,5 0,9 0,14 0,21 18,36 41,36 25,0 41,-15 41,-36 0,-5 0,-9 0,-14 z m 7,14 c 0,25 -19,42 -48,42 -27,0 -48,-17 -48,-42 0,-5 0,-9 0,-14 0,-22 21,-41 48,-41 29,0 48,19 48,41 0,5 0,9 0,14 z"
             id="path96"
             style="fill:#000000;stroke:none" /></g></g><g
         transform="translate(0,-3.6875463e-6)"
         class="com.sun.star.drawing.ClosedBezierShape"
         id="g98"><g
           id="id12"><path
             d="m 9843,14284 c 49,0 97,0 146,0 0,19 0,37 0,56 -49,0 -97,0 -146,0 0,57 0,115 0,173 -24,0 -49,0 -73,0 0,-136 0,-271 0,-407 81,0 163,0 244,0 0,19 0,38 0,57 -57,0 -114,0 -171,0 0,40 0,81 0,121 z"
             id="path101"
             style="fill:#000000;stroke:none" /></g></g><g
         transform="translate(0,-3.6875463e-6)"
         class="com.sun.star.drawing.ClosedBezierShape"
         id="g103"><g
           id="id13"><path
             d="m 10398,14513 c -22,0 -43,0 -65,0 -1,-13 -3,-26 -4,-38 -23,24 -59,46 -111,46 -89,0 -133,-60 -133,-139 0,-92 0,-184 0,-276 24,0 49,0 73,0 0,93 0,186 0,279 0,46 21,79 77,79 43,0 71,-21 90,-46 0,-104 0,-208 0,-312 24,0 49,0 73,0 0,136 0,271 0,407 z"
             id="path106"
             style="fill:#000000;stroke:none" /></g></g><g
         transform="translate(0,-3.6875463e-6)"
         class="com.sun.star.drawing.ClosedBezierShape"
         id="g108"><g
           id="id14"><path
             d="m 10548,14394 c 2,37 20,70 91,70 62,0 78,-29 78,-52 0,-5 0,-9 0,-13 0,-35 -19,-46 -78,-64 -20,-7 -39,-13 -59,-19 -62,-19 -88,-48 -88,-99 0,-5 0,-9 0,-14 0,-49 41,-104 147,-104 92,0 147,44 150,120 -23,0 -46,0 -69,0 -3,-35 -23,-65 -81,-65 -57,0 -73,26 -73,48 0,3 0,7 0,10 0,23 16,37 66,53 19,6 39,12 58,18 67,20 100,52 100,109 0,5 0,10 0,15 0,62 -50,114 -151,114 -101,0 -156,-48 -161,-127 23,0 47,0 70,0 z"
             id="path111"
             style="fill:#000000;stroke:none" /></g></g><g
         transform="translate(0,-3.6875463e-6)"
         class="com.sun.star.drawing.ClosedBezierShape"
         id="g113"><g
           id="id15"><path
             d="m 10874,14106 c 24,0 49,0 73,0 0,136 0,271 0,407 -24,0 -49,0 -73,0 0,-136 0,-271 0,-407 z"
             id="path116"
             style="fill:#000000;stroke:none" /></g></g><g
         transform="translate(0,-3.6875463e-6)"
         class="com.sun.star.drawing.ClosedBezierShape"
         id="g118"><g
           id="id16"><path
             d="m 11114,14264 c 0,31 0,62 0,93 0,64 30,107 94,107 64,0 94,-43 94,-107 0,-31 0,-62 0,-93 0,-66 -31,-109 -94,-109 -64,0 -94,43 -94,109 z m 262,92 c 0,94 -56,165 -168,165 -111,0 -167,-71 -167,-165 0,-31 0,-61 0,-91 0,-96 55,-166 167,-166 112,0 168,70 168,166 0,30 0,60 0,91 z"
             id="path121"
             style="fill:#000000;stroke:none" /></g></g><g
         transform="translate(0,-3.6875463e-6)"
         class="com.sun.star.drawing.ClosedBezierShape"
         id="g123"><g
           id="id17"><path
             d="m 11780,14513 c -28,0 -57,0 -85,0 -53,-105 -107,-210 -160,-315 0,105 0,210 0,315 -21,0 -43,0 -64,0 0,-136 0,-271 0,-407 29,0 59,0 88,0 52,102 104,204 156,306 0,-102 0,-204 0,-306 22,0 43,0 65,0 0,136 0,271 0,407 z"
             id="path126"
             style="fill:#000000;stroke:none" /></g></g><g
         transform="translate(0,-3.6875463e-6)"
         class="com.sun.star.drawing.ClosedBezierShape"
         id="g128"><g
           id="id18"><path
             d="m 12089,14407 c 4,30 29,58 78,58 41,0 78,-19 78,-64 0,-5 0,-10 0,-14 0,-51 -52,-63 -82,-63 -13,0 -25,0 -38,0 0,-18 0,-35 0,-52 13,0 25,0 38,0 30,0 66,-11 66,-52 0,-5 0,-9 0,-14 0,-37 -28,-51 -65,-51 -46,0 -67,26 -69,57 -23,0 -46,0 -69,0 3,-61 53,-113 142,-113 75,0 133,39 133,100 0,7 0,15 0,22 0,37 -33,65 -67,73 34,6 83,37 83,87 0,8 0,17 0,26 0,65 -61,114 -147,114 -96,0 -144,-53 -150,-114 23,0 46,0 69,0 z"
             id="path131"
             style="fill:#000000;stroke:none" /></g></g><g
         transform="translate(0,-3.6875463e-6)"
         class="com.sun.star.drawing.ClosedBezierShape"
         id="g133"><g
           id="id19"><path
             d="m 12605,14369 c 0,-35 -21,-63 -60,-63 -40,0 -66,15 -89,46 0,14 0,28 0,43 0,37 24,69 73,69 51,0 76,-31 76,-74 0,-7 0,-14 0,-21 z m 72,23 c 0,66 -51,129 -149,129 -93,0 -144,-60 -144,-130 0,-51 0,-101 0,-151 0,-66 40,-141 145,-141 83,0 137,39 140,109 -23,0 -45,0 -68,0 -1,-35 -29,-53 -70,-53 -51,0 -75,29 -75,81 0,19 0,38 0,57 22,-27 53,-42 98,-42 77,0 123,54 123,116 0,8 0,16 0,25 z"
             id="path136"
             style="fill:#000000;stroke:none" /></g></g><g
         transform="translate(0,-3.6875463e-6)"
         class="com.sun.star.drawing.ClosedBezierShape"
         id="g138"><g
           id="id20"><path
             d="m 12972,14380 c 0,-47 0,-93 0,-139 0,-58 -30,-87 -74,-87 -48,0 -77,29 -77,87 0,46 0,92 0,139 0,56 29,84 77,84 44,0 74,-28 74,-84 z m -224,-138 c 0,-89 54,-143 150,-143 93,0 146,54 146,143 0,46 0,92 0,138 0,86 -53,141 -146,141 -96,0 -150,-55 -150,-141 0,-46 0,-92 0,-138 z"
             id="path141"
             style="fill:#000000;stroke:none" /></g></g><g
         transform="translate(0,-3.6875463e-6)"
         class="com.sun.star.drawing.ClosedBezierShape"
         id="g143"><g
           id="id21"><path
             d="m 13210,14107 c 0,20 0,41 0,61 -3,0 -6,0 -9,0 0,-16 0,-31 0,-47 -6,16 -11,31 -17,47 -3,0 -7,0 -10,0 -6,-16 -12,-32 -18,-48 0,16 0,32 0,48 -3,0 -6,0 -9,0 0,-20 0,-41 0,-61 4,0 8,0 12,0 7,17 13,35 20,52 6,-17 13,-35 19,-52 4,0 8,0 12,0 z m -75,0 c 0,3 0,5 0,8 -7,0 -13,0 -20,0 0,18 0,35 0,53 -3,0 -7,0 -10,0 0,-18 0,-35 0,-53 -7,0 -13,0 -20,0 0,-3 0,-5 0,-8 17,0 33,0 50,0 z"
             id="path146"
             style="fill:#000000;stroke:none" /></g></g><g
         transform="translate(0,-3.6875463e-6)"
         class="Group"
         id="g148"><g
           class="com.sun.star.drawing.ClosedBezierShape"
           id="g150"><g
             id="id22"><path
               d="m 8758,14484 c -19,-205 -27,-787 -24,-908 42,-24 179,-61 189,-63 1,0 1,0 2,0 58,3 255,14 397,48 11,2 17,9 20,21 10,35 29,122 32,135 -3,3 -17,11 -81,11 -21,0 -44,-1 -71,-3 -11,-1 -21,-1 -31,-1 -59,0 -107,12 -140,36 -25,18 -40,43 -41,67 -3,49 22,79 78,92 77,19 187,37 207,40 19,46 37,93 55,140 -59,5 -161,13 -227,30 -92,24 -99,82 -106,150 0,3 0,5 -1,8 -6,55 -1,170 3,222 -13,0 -26,0 -39,0 -104,0 -194,-10 -222,-25 z"
               id="path153"
               style="fill:#000000;stroke:none" /></g></g><g
           style="stroke-width:2.82222208;stroke-miterlimit:4;stroke-dasharray:none"
           class="com.sun.star.drawing.ClosedBezierShape"
           id="g155"><g
             style="stroke-width:2.82222208;stroke-miterlimit:4;stroke-dasharray:none"
             id="id23"><path
               d="m 9016,14505 c -4,-6 -11,-16 -19,-29 -8,-12 -18,-29 -28,-46 -11,-18 -23,-39 -35,-61 -12,-23 -25,-47 -37,-74 -7,-13 -13,-27 -19,-41 -4,-7 -7,-14 -10,-21 -3,-8 -6,-15 -9,-23 -11,-29 -23,-61 -32,-93 -5,-15 -10,-31 -14,-48 -4,-16 -8,-33 -11,-50 -6,-34 -11,-68 -13,-101 -1,-17 -2,-34 -1,-50 0,-17 0,-33 2,-49 2,-32 7,-63 14,-91 7,-29 16,-55 26,-79 10,-24 20,-45 31,-63 11,-18 21,-33 30,-45 9,-11 17,-20 22,-26 3,-3 5,-5 7,-7 1,-1 2,-1 2,-2 0,1 -1,1 -2,2 -2,2 -4,4 -6,7 -6,6 -13,15 -22,27 -9,12 -19,27 -29,45 -11,18 -20,39 -30,63 -9,24 -18,50 -25,78 -7,29 -11,60 -14,91 -1,16 -2,32 -2,49 0,16 1,33 2,50 2,33 7,67 13,100 3,17 7,34 11,50 4,16 8,33 13,48 10,32 21,63 33,93 11,29 24,58 36,84 12,27 25,52 37,74 12,23 23,43 33,62 11,18 20,33 28,46 7,13 13,23 18,30 4,6 4,7 6,10 -2,-3 -1,-3 -6,-10 z"
               id="path158"
               style="fill:#ffffff;stroke:none;stroke-width:2.82222208;stroke-miterlimit:4;stroke-dasharray:none" /><path
               d="m 9016,14505 c -4,-6 -11,-16 -19,-29 -8,-12 -18,-29 -28,-46 -11,-18 -23,-39 -35,-61 -12,-23 -25,-47 -37,-74 -7,-13 -13,-27 -19,-41 -4,-7 -7,-14 -10,-21 -3,-8 -6,-15 -9,-23 -11,-29 -23,-61 -32,-93 -5,-15 -10,-31 -14,-48 -4,-16 -8,-33 -11,-50 -6,-34 -11,-68 -13,-101 -1,-17 -2,-34 -1,-50 0,-17 0,-33 2,-49 2,-32 7,-63 14,-91 7,-29 16,-55 26,-79 10,-24 20,-45 31,-63 11,-18 21,-33 30,-45 9,-11 17,-20 22,-26 l 7,-7 c 1,-1 2,-1 2,-2 0,1 -1,1 -2,2 -2,2 -4,4 -6,7 -6,6 -13,15 -22,27 -9,12 -19,27 -29,45 -11,18 -20,39 -30,63 -9,24 -18,50 -25,78 -7,29 -11,60 -14,91 -1,16 -2,32 -2,49 0,16 1,33 2,50 2,33 7,67 13,100 3,17 7,34 11,50 4,16 8,33 13,48 10,32 21,63 33,93 11,29 24,58 36,84 12,27 25,52 37,74 12,23 23,43 33,62 11,18 20,33 28,46 7,13 13,23 18,30 4,6 4,7 6,10 -2,-3 -1,-3 -6,-10 z"
               id="path160"
               style="fill:none;stroke:#ffffff;stroke-width:2.82222208;stroke-miterlimit:4;stroke-dasharray:none" /></g></g><g
           style="stroke-width:2.82222208;stroke-miterlimit:4;stroke-dasharray:none"
           transform="translate(-3.6875463e-6,6.8754525e-7)"
           class="com.sun.star.drawing.ClosedBezierShape"
           id="g162"><g
             style="stroke-width:2.82222208;stroke-miterlimit:4;stroke-dasharray:none"
             id="id24"><path
               d="m 9088,13914 c 86,20 142,27 212,41 l -4,0 c 0,0 0,0 0,0 -16,-1 -31,-2 -47,-3 -1,0 -1,0 -2,0 -7,0 -16,0 -25,-1 -9,0 -19,-1 -29,-1 -4,0 -10,-1 -15,-1 l -15,0 c -5,0 -10,-1 -16,-1 l -8,0 -7,0 -16,0 -8,0 c -3,-1 -5,-1 -8,0 l -30,0 -8,0 -1,1 -2,0 -3,0 c -5,1 -9,3 -14,4 -8,3 -15,8 -21,13 -1,1 -3,2 -4,4 -1,0 -1,1 -2,2 l -1,1 c 0,0 0,0 -1,0 0,0 0,1 0,1 0,0 0,0 0,0 -1,1 -2,3 -3,4 0,0 0,0 0,0 -3,4 -4,8 -6,12 l 0,0 c 0,0 0,0 0,0 -15,40 12,92 95,91 49,0 89,0 122,2 108,4 132,17 137,20 -52,4 -165,13 -235,31 -93,24 -95,83 -103,155 -6,54 -2,170 2,226 0,-1 -62,-114 -113,-255 -6,-17 -12,-35 -18,-53 -1,-2 -2,-3 -3,-8 -2,-6 -5,-16 -9,-29 -4,-12 -8,-28 -13,-46 -5,-17 -10,-38 -14,-60 -4,-22 -8,-46 -10,-72 -2,-26 -3,-54 0,-82 2,-14 4,-28 7,-43 4,-14 9,-28 15,-41 6,-14 14,-27 22,-40 9,-12 19,-24 30,-34 23,-21 49,-37 77,-48 28,-11 57,-17 85,-21 28,-4 56,-5 82,-4 26,0 50,2 73,5 22,3 42,6 61,10 18,3 33,7 46,10 26,6 26,8 40,11 -12,-2 -14,-3 -30,-7 11,3 17,5 30,8 -4,3 0,4 -12,7 l -9,3 c -4,0 -9,1 -15,2 l -1,0 c -9,1 -21,2 -37,2 l -1,0 -23,0 -1,0 c -15,0 -34,-1 -55,-2 -2,0 -4,0 -5,-1 -9,-1 -18,-1 -27,-1 -136,0 -179,61 -180,100 -4,57 34,78 74,88 z m -198,290 c 0,1 0,2 1,2 -1,0 -1,-1 -1,-2 z m 36,-454 0,0 c 0,0 0,0 0,0 l 0,0 z m 49,-33 c 0,1 0,1 0,1 0,0 0,0 0,-1 z m 6,-2 c 0,0 1,0 1,0 -1,0 -1,0 -1,0 0,0 0,0 0,0 z"
               id="path165"
               style="fill:#ffffff;stroke:none;stroke-width:2.82222208;stroke-miterlimit:4;stroke-dasharray:none" /><path
               d="m 9088,13914 c 86,20 142,27 212,41 l -4,0 c 0,0 0,0 0,0 -16,-1 -31,-2 -47,-3 -1,0 -1,0 -2,0 -7,0 -16,0 -25,-1 -9,0 -19,-1 -29,-1 -4,0 -10,-1 -15,-1 l -15,0 c -5,0 -10,-1 -16,-1 l -8,0 -7,0 -16,0 -8,0 c -3,-1 -5,-1 -8,0 l -30,0 -8,0 -1,1 -2,0 -3,0 c -5,1 -9,3 -14,4 -8,3 -15,8 -21,13 -1,1 -3,2 -4,4 -1,0 -1,1 -2,2 l -1,1 c 0,0 0,0 -1,0 0,0 0,1 0,1 0,0 0,0 0,0 -1,1 -2,3 -3,4 0,0 0,0 0,0 -3,4 -4,8 -6,12 l 0,0 c 0,0 0,0 0,0 -15,40 12,92 95,91 49,0 89,0 122,2 108,4 132,17 137,20 -52,4 -165,13 -235,31 -93,24 -95,83 -103,155 -6,54 -2,170 2,226 0,-1 -62,-114 -113,-255 -6,-17 -12,-35 -18,-53 -1,-2 -2,-3 -3,-8 -2,-6 -5,-16 -9,-29 -4,-12 -8,-28 -13,-46 -5,-17 -10,-38 -14,-60 -4,-22 -8,-46 -10,-72 -2,-26 -3,-54 0,-82 2,-14 4,-28 7,-43 4,-14 9,-28 15,-41 6,-14 14,-27 22,-40 9,-12 19,-24 30,-34 23,-21 49,-37 77,-48 28,-11 57,-17 85,-21 28,-4 56,-5 82,-4 26,0 50,2 73,5 22,3 42,6 61,10 18,3 33,7 46,10 26,6 26,8 40,11 -12,-2 -14,-3 -30,-7 11,3 17,5 30,8 -4,3 0,4 -12,7 l -9,3 c -4,0 -9,1 -15,2 l -1,0 c -9,1 -21,2 -37,2 l -1,0 -23,0 -1,0 c -15,0 -34,-1 -55,-2 -2,0 -4,0 -5,-1 -9,-1 -18,-1 -27,-1 -136,0 -179,61 -180,100 -4,57 34,78 74,88 z"
               id="path167"
               style="fill:none;stroke:#000000;stroke-width:2.82222208;stroke-miterlimit:4;stroke-dasharray:none" /><path
               d="m 8890,14204 c 0,1 0,2 1,2 -1,0 -1,-1 -1,-2 z"
               id="path169"
               style="fill:none;stroke:#000000;stroke-width:2.82222208;stroke-miterlimit:4;stroke-dasharray:none" /><path
               d="m 8926,13750 0,0 c 0,0 0,0 0,0 l 0,0 z"
               id="path171"
               style="fill:none;stroke:#000000;stroke-width:2.82222208;stroke-miterlimit:4;stroke-dasharray:none" /><path
               d="m 8975,13717 c 0,1 0,1 0,1 0,0 0,0 0,-1 z"
               id="path173"
               style="fill:none;stroke:#000000;stroke-width:2.82222208;stroke-miterlimit:4;stroke-dasharray:none" /><path
               d="m 8981,13715 c 0,0 1,0 1,0 -1,0 -1,0 -1,0 0,0 0,0 0,0 z"
               id="path175"
               style="fill:none;stroke:#000000;stroke-width:2.82222208;stroke-miterlimit:4;stroke-dasharray:none" /></g></g></g></g></g></svg>