<?xml version="1.0" encoding="UTF-8" standalone="no"?>
<!-- Created with Inkscape (http://www.inkscape.org/) -->

<svg
   xmlns:dc="http://purl.org/dc/elements/1.1/"
   xmlns:cc="http://creativecommons.org/ns#"
   xmlns:rdf="http://www.w3.org/1999/02/22-rdf-syntax-ns#"
   xmlns:svg="http://www.w3.org/2000/svg"
   xmlns="http://www.w3.org/2000/svg"
   xmlns:sodipodi="http://sodipodi.sourceforge.net/DTD/sodipodi-0.dtd"
   xmlns:inkscape="http://www.inkscape.org/namespaces/inkscape"
   width="164.67883mm"
   height="256mm"
   viewBox="0 0 583.50767 907.08661"
   id="svg2"
   version="1.1"
   inkscape:version="0.91 r"
   sodipodi:docname="Fusion_360_2.svg">
  <defs
     id="defs4">
    <clipPath
       id="presentation_clip_path"
       clipPathUnits="userSpaceOnUse">
      <rect
         x="8733"
         y="13498"
         width="4477"
         height="1023"
         id="rect7" />
    </clipPath>
  </defs>
  <sodipodi:namedview
     id="base"
     pagecolor="#ffffff"
     bordercolor="#666666"
     borderopacity="1.0"
     inkscape:pageopacity="0.0"
     inkscape:pageshadow="2"
     inkscape:zoom="0.98447049"
     inkscape:cx="291.75384"
     inkscape:cy="453.54331"
     inkscape:document-units="px"
     inkscape:current-layer="g148"
     showgrid="false"
     inkscape:window-width="1920"
     inkscape:window-height="1050"
     inkscape:window-x="0"
     inkscape:window-y="30"
     inkscape:window-maximized="1"
     fit-margin-top="1"
     fit-margin-left="1"
     fit-margin-right="1"
     fit-margin-bottom="1" />
  <metadata
     id="metadata7">
    <rdf:RDF>
      <cc:Work
         rdf:about="">
        <dc:format>image/svg+xml</dc:format>
        <dc:type
           rdf:resource="http://purl.org/dc/dcmitype/StillImage" />
        <dc:title />
      </cc:Work>
    </rdf:RDF>
  </metadata>
  <g
     inkscape:label="Layer 1"
     inkscape:groupmode="layer"
     id="layer1"
     transform="translate(-48.575161,793.22004)">
    <g
       style="fill-rule:evenodd;stroke-width:28.22200012;stroke-linejoin:round"
       id="g4400"
       transform="matrix(0.03543307,0,0,0.03543307,-257.3322,-404.03739)">
      <g
         class="SlideGroup"
         id="g44">
        <g
           id="g46">
          <g
             id="g148"
             class="Group"
             transform="matrix(25.103807,0,0,25.103807,-210507.86,-349900.69)"
             inkscape:export-xdpi="90"
             inkscape:export-ydpi="90">
            <g
               id="g4171">
              <g
                 class="com.sun.star.drawing.ClosedBezierShape"
                 id="g150">
                <g
                   transform="translate(4.4968834,-8.9937663)"
                   id="id22">
                  <path
                     inkscape:connector-curvature="0"
                     id="path153"
                     d="m 8758,14484 c -18.8029,-252.081 -20.8712,-505.082 -24.2966,-757.74 -0.2909,-50.086 -0.6858,-100.18 0.2966,-150.26 60.5702,-28.931 126.2168,-46.54 191,-63 135.536,8.137 272.2065,17.745 404.3438,50.438 24.4596,29.419 22.9448,73.528 34.7543,109.528 16.1638,32.596 7.8062,58.903 -31.8637,53.737 -89.2685,7.24 -185.3248,-21.68 -268.1641,24.859 -44.0557,21.308 -69.5908,77.443 -45.4746,122.653 28.4893,48.213 91.464,47.117 139.4677,60.267 45.4709,9.106 91.1232,17.327 136.9366,24.518 14.699,44.855 48.7229,103.179 49.3452,140.478 -84.4179,8.791 -171.5264,10.901 -252.0268,40.069 -49.4397,18.262 -70.4339,71.74 -73.2796,120.611 -10.5653,82.545 -4.8843,166.081 -0.039,248.842 -85.2388,-0.737 -172.5899,2.125 -255.0352,-22.247 L 8758,14484 Z"
                     style="fill:#000000;stroke:none" />
                </g>
              </g>
              <g
                 style="stroke-width:2.82222199;stroke-miterlimit:4;stroke-dasharray:none"
                 class="com.sun.star.drawing.ClosedBezierShape"
                 id="g155">
                <g
                   style="stroke-width:2.82222199;stroke-miterlimit:4;stroke-dasharray:none"
                   id="id23">
                  <path
                     inkscape:connector-curvature="0"
                     id="path158"
                     d="m 9016,14505 c -98.411,-150.238 -181.1769,-314.754 -215.1128,-492.375 -29.6678,-154.755 -12.7567,-325.176 79.5659,-456.859 9.528,-17.335 63.8238,-74.455 23.6719,-29.516 -100.645,126.369 -128.5836,297.596 -103.3477,454.309 27.7347,186.838 114.4675,358.781 211.2852,518.629 5.6559,7.919 14.7986,23.866 3.9375,5.812 z"
                     style="fill:#ffffff;stroke:none;stroke-width:2.82222199;stroke-miterlimit:4;stroke-dasharray:none" />
                  <path
                     inkscape:connector-curvature="0"
                     id="path160"
                     d="m 9016,14505 c -98.411,-150.238 -181.1769,-314.754 -215.1128,-492.375 -29.6678,-154.755 -12.7567,-325.176 79.5659,-456.859 9.528,-17.335 63.8238,-74.455 23.6719,-29.516 -100.645,126.369 -128.5836,297.596 -103.3477,454.309 27.7347,186.838 114.4675,358.781 211.2852,518.629 5.6559,7.919 14.7986,23.866 3.9375,5.812 z"
                     style="fill:none;stroke:#ffffff;stroke-width:2.82222199;stroke-miterlimit:4;stroke-dasharray:none" />
                </g>
              </g>
              <g
                 style="stroke-width:2.82222199;stroke-miterlimit:4;stroke-dasharray:none"
                 transform="translate(-2.2484454,-6.7453246)"
                 class="com.sun.star.drawing.ClosedBezierShape"
                 id="g162">
                <g
                   style="stroke-width:2.82222199;stroke-miterlimit:4;stroke-dasharray:none"
                   id="id24">
                  <path
                     inkscape:connector-curvature="0"
                     id="path165"
                     d="m 9088,13914 c 70.0435,16.784 141.3796,27.093 212,41 -79.3037,-4.542 -158.7239,-8.169 -238,-7 -38.3619,2.934 -72.8424,41.248 -59.3306,81.032 17.1322,50.478 78.09,54.626 122.9571,51.981 74.716,1.774 151.3188,-1.558 224.0454,18.159 14.4457,8.759 -41.2946,5.032 -55.1192,9.165 -70.0983,8.582 -143.1598,11.312 -208.8514,39.393 -51.7505,23.196 -61.3206,84.306 -64.9659,134.559 -7.3254,77.351 -2.9946,155.294 1.2646,232.711 -74.7827,-145.565 -138.9152,-298.478 -171.4961,-459.344 -17.2034,-93.296 -19.3492,-200.199 42.4336,-278.625 63.6375,-81.398 174.181,-101.609 271.9143,-98.008 72.9228,1.701 145.2816,15.55 215.1482,35.977 -20.6109,-3.984 -40.8742,-10.093 -8.625,-1.094 13.3868,14.435 -47.8165,16.153 -66.375,16.094 -75.9702,1.372 -155.6187,-16.441 -227.4551,17.357 -44.6077,17.164 -77.5228,67.549 -59.2949,115.034 10.1124,29.925 41.1104,44.807 69.75,51.609 z m -198,290 c 0.8302,2.718 0.8302,2.718 0,0 z m 85,-487 0,1 0,-1 z m 6,-2 1,0 -1,0 z"
                     style="fill:#ffffff;stroke:none;stroke-width:2.82222199;stroke-miterlimit:4;stroke-dasharray:none" />
                  <path
                     inkscape:connector-curvature="0"
                     id="path167"
                     d="m 9088,13914 c 70.0435,16.784 141.3796,27.093 212,41 -79.3037,-4.542 -158.7239,-8.169 -238,-7 -38.3619,2.934 -72.8424,41.248 -59.3306,81.032 17.1322,50.478 78.09,54.626 122.9571,51.981 74.716,1.774 151.3188,-1.558 224.0454,18.159 14.4457,8.759 -41.2946,5.032 -55.1192,9.165 -70.0983,8.582 -143.1598,11.312 -208.8514,39.393 -51.7505,23.196 -61.3206,84.306 -64.9659,134.559 -7.3254,77.351 -2.9946,155.294 1.2646,232.711 -74.7827,-145.565 -138.9152,-298.478 -171.4961,-459.344 -17.2034,-93.296 -19.3492,-200.199 42.4336,-278.625 63.6375,-81.398 174.181,-101.609 271.9143,-98.008 72.9228,1.701 145.2816,15.55 215.1482,35.977 -20.6109,-3.984 -40.8742,-10.093 -8.625,-1.094 13.3868,14.435 -47.8165,16.153 -66.375,16.094 -75.9702,1.372 -155.6187,-16.441 -227.4551,17.357 -44.6077,17.164 -77.5228,67.549 -59.2949,115.034 10.1124,29.925 41.1104,44.807 69.75,51.609 z"
                     style="fill:none;stroke:#000000;stroke-width:2.82222199;stroke-miterlimit:4;stroke-dasharray:none" />
                  <path
                     inkscape:connector-curvature="0"
                     id="path169"
                     d="m 8890,14204 c 0.8302,2.718 0.8302,2.718 0,0 z"
                     style="fill:none;stroke:#000000;stroke-width:2.82222199;stroke-miterlimit:4;stroke-dasharray:none" />
                  <path
                     inkscape:connector-curvature="0"
                     id="path171"
                     d="m 8926,13750 0,0 0,0 0,0 z"
                     style="fill:none;stroke:#000000;stroke-width:2.82222199;stroke-miterlimit:4;stroke-dasharray:none" />
                  <path
                     inkscape:connector-curvature="0"
                     id="path173"
                     d="m 8975,13717 c 0,0.333 0,0.333 0,0 z"
                     style="fill:none;stroke:#000000;stroke-width:2.82222199;stroke-miterlimit:4;stroke-dasharray:none" />
                  <path
                     inkscape:connector-curvature="0"
                     id="path175"
                     d="m 8981,13715 c 0.3333,0 0.3333,0 0,0 z"
                     style="fill:none;stroke:#000000;stroke-width:2.82222199;stroke-miterlimit:4;stroke-dasharray:none" />
                </g>
              </g>
            </g>
          </g>
        </g>
      </g>
    </g>
  </g>
</svg>
