<?xml version="1.0" encoding="UTF-8"?>
<!DOCTYPE svg PUBLIC "-//W3C//DTD SVG 1.1//EN" "http://www.w3.org/Graphics/SVG/1.1/DTD/svg11.dtd">
<svg version="1.2" width="50.1mm" height="74.03mm" viewBox="8497 7299 5010 7403" preserveAspectRatio="xMidYMid" fill-rule="evenodd" stroke-width="28.222" stroke-linejoin="round" xmlns="http://www.w3.org/2000/svg" xmlns:ooo="http://xml.openoffice.org/svg/export" xmlns:xlink="http://www.w3.org/1999/xlink" xmlns:presentation="http://sun.com/xmlns/staroffice/presentation" xmlns:smil="http://www.w3.org/2001/SMIL20/" xmlns:anim="urn:oasis:names:tc:opendocument:xmlns:animation:1.0" xml:space="preserve">
 <defs class="ClipPathGroup">
  <clipPath id="presentation_clip_path" clipPathUnits="userSpaceOnUse">
   <rect x="8497" y="7299" width="5010" height="7403"/>
  </clipPath>
 </defs>
 <defs class="TextShapeIndex">
  <g ooo:slide="id1" ooo:id-list="id3"/>
 </defs>
 <defs class="EmbeddedBulletChars">
  <g id="bullet-char-template(57356)" transform="scale(0.00048828125,-0.00048828125)">
   <path d="M 580,1141 L 1163,571 580,0 -4,571 580,1141 Z"/>
  </g>
  <g id="bullet-char-template(57354)" transform="scale(0.00048828125,-0.00048828125)">
   <path d="M 8,1128 L 1137,1128 1137,0 8,0 8,1128 Z"/>
  </g>
  <g id="bullet-char-template(10146)" transform="scale(0.00048828125,-0.00048828125)">
   <path d="M 174,0 L 602,739 174,1481 1456,739 174,0 Z M 1358,739 L 309,1346 659,739 1358,739 Z"/>
  </g>
  <g id="bullet-char-template(10132)" transform="scale(0.00048828125,-0.00048828125)">
   <path d="M 2015,739 L 1276,0 717,0 1260,543 174,543 174,936 1260,936 717,1481 1274,1481 2015,739 Z"/>
  </g>
  <g id="bullet-char-template(10007)" transform="scale(0.00048828125,-0.00048828125)">
   <path d="M 0,-2 C -7,14 -16,27 -25,37 L 356,567 C 262,823 215,952 215,954 215,979 228,992 255,992 264,992 276,990 289,987 310,991 331,999 354,1012 L 381,999 492,748 772,1049 836,1024 860,1049 C 881,1039 901,1025 922,1006 886,937 835,863 770,784 769,783 710,716 594,584 L 774,223 C 774,196 753,168 711,139 L 727,119 C 717,90 699,76 672,76 641,76 570,178 457,381 L 164,-76 C 142,-110 111,-127 72,-127 30,-127 9,-110 8,-76 1,-67 -2,-52 -2,-32 -2,-23 -1,-13 0,-2 Z"/>
  </g>
  <g id="bullet-char-template(10004)" transform="scale(0.00048828125,-0.00048828125)">
   <path d="M 285,-33 C 182,-33 111,30 74,156 52,228 41,333 41,471 41,549 55,616 82,672 116,743 169,778 240,778 293,778 328,747 346,684 L 369,508 C 377,444 397,411 428,410 L 1163,1116 C 1174,1127 1196,1133 1229,1133 1271,1133 1292,1118 1292,1087 L 1292,965 C 1292,929 1282,901 1262,881 L 442,47 C 390,-6 338,-33 285,-33 Z"/>
  </g>
  <g id="bullet-char-template(9679)" transform="scale(0.00048828125,-0.00048828125)">
   <path d="M 813,0 C 632,0 489,54 383,161 276,268 223,411 223,592 223,773 276,916 383,1023 489,1130 632,1184 813,1184 992,1184 1136,1130 1245,1023 1353,916 1407,772 1407,592 1407,412 1353,268 1245,161 1136,54 992,0 813,0 Z"/>
  </g>
  <g id="bullet-char-template(8226)" transform="scale(0.00048828125,-0.00048828125)">
   <path d="M 346,457 C 273,457 209,483 155,535 101,586 74,649 74,723 74,796 101,859 155,911 209,963 273,989 346,989 419,989 480,963 531,910 582,859 608,796 608,723 608,648 583,586 532,535 482,483 420,457 346,457 Z"/>
  </g>
  <g id="bullet-char-template(8211)" transform="scale(0.00048828125,-0.00048828125)">
   <path d="M -4,459 L 1135,459 1135,606 -4,606 -4,459 Z"/>
  </g>
 </defs>
 <defs class="TextEmbeddedBitmaps"/>
 <g class="SlideGroup">
  <g>
   <g id="id1" class="Slide" clip-path="url(#presentation_clip_path)">
    <g class="Page">
     <g class="com.sun.star.drawing.PolyPolygonShape">
      <g id="id3">
       <rect class="BoundingBox" stroke="none" fill="none" x="8497" y="7298" width="5011" height="7405"/>
       <path fill="none" stroke="rgb(52,101,164)" stroke-width="10" stroke-linejoin="round" d="M 12000,13625 L 11550,13625 11548,13764 11537,13930 11513,14107 11494,14196 11469,14283 11439,14366 11402,14444 11357,14514 11304,14575 11275,14602 11243,14626 11209,14647 11172,14664 11133,14678 11092,14689 11047,14695 11000,14697 10953,14695 10908,14689 10867,14678 10828,14664 10791,14647 10757,14626 10725,14602 10696,14575 10643,14514 10598,14444 10561,14366 10531,14283 10506,14196 10487,14107 10463,13930 10452,13764 10450,13625 10000,13625 9946,13726 9929,13753 9910,13780 9888,13807 9863,13832 9835,13856 9803,13879 9766,13899 9724,13916 9677,13930 9624,13941 9566,13948 9500,13950 9448,13948 9400,13941 9355,13931 9314,13916 9276,13897 9242,13874 9210,13847 9180,13817 9153,13783 9127,13745 9104,13704 9081,13659 9039,13561 9000,13450 8957,13417 8919,13384 8885,13353 8856,13320 8828,13287 8802,13251 8750,13171 8725,13125 8701,13075 8678,13022 8657,12967 8638,12911 8622,12856 8609,12802 8600,12750 8548,12209 8527,11725 8502,10400 8637,9691 8751,9197 9100,7850 9111,7812 9125,7775 9141,7739 9159,7704 9180,7671 9204,7638 9229,7607 9257,7578 9287,7550 9319,7523 9353,7498 9389,7475 9427,7453 9466,7434 9507,7416 9550,7400 9826,7350 9943,7334 10069,7321 10415,7307 11000,7304 11931,7343 12174,7365 12450,7400 12493,7415 12534,7433 12572,7453 12607,7475 12640,7500 12670,7526 12699,7554 12726,7584 12775,7647 12819,7714 12899,7853 13250,9183 13365,9682 13502,10400 13475,11735 13454,12221 13400,12750 13392,12802 13379,12856 13363,12911 13344,12967 13323,13022 13299,13075 13275,13125 13250,13171 13238,13199 13224,13225 13210,13249 13194,13272 13162,13313 13128,13349 13094,13380 13060,13407 13000,13450 12953,13566 12902,13667 12875,13711 12848,13752 12819,13790 12789,13823 12758,13853 12726,13878 12692,13900 12657,13918 12620,13932 12582,13942 12542,13948 12500,13950 12432,13948 12371,13943 12318,13934 12272,13921 12232,13906 12197,13889 12167,13869 12141,13847 12118,13823 12099,13797 12081,13770 12064,13742 12000,13625 Z"/>
      </g>
     </g>
    </g>
   </g>
  </g>
 </g>
</svg>