  0
SECTION
  2
HEADER
  9
$ACADVER
  1
AC1009
  9
$INSBASE
 10
0.0
 20
0.0
 30
0.0
  9
$EXTMIN
 10
0.0
 20
0.0
 30
0.0
  9
$EXTMAX
 10
0.0
 20
0.0
 30
0.0
  0
ENDSEC
  0
SECTION
  2
TABLES
  0
TABLE
  2
VPORT
 70
0
  0
ENDTAB
  0
TABLE
  2
LTYPE
 70
1
  0
LTYPE
  2
CONTINUOUS
 70
0
  3
Solid line
 72
65
 73
0
 40
0.0
  0
ENDTAB
  0
TABLE
  2
LAYER
 70
1
  0
LAYER
  2
0
 70
64
 62
7
  6
continuous
  0
ENDTAB
  0
TABLE
  2
STYLE
 70
1
  0
STYLE
  2
STANDARD
 70
0
 40
0
 41
1.0
 50
0.0
 71
0
 42
1
 3
ARIAL.TTF
 4

  0
ENDTAB
  0
TABLE
  2
VIEW
 70
0
  0
ENDTAB
  0
ENDSEC
  0
SECTION
  2
BLOCKS
  0
ENDSEC
  0
SECTION
  2
ENTITIES
  0
POLYLINE
  8
0
 62
165
 70
1
 66
1
 10
0.0
 20
0.0
 30
0.0
  0
VERTEX
  8
0
 10
120.0
 20
-136.25
 30
0.0
  0
VERTEX
  8
0
 10
115.5
 20
-136.25
 30
0.0
  0
VERTEX
  8
0
 10
115.225185185
 20
-140.473703704
 30
0.0
  0
VERTEX
  8
0
 10
113.728148148
 20
-144.912962963
 30
0.0
  0
VERTEX
  8
0
 10
110.0
 20
-146.97
 30
0.0
  0
VERTEX
  8
0
 10
106.271851852
 20
-144.912962963
 30
0.0
  0
VERTEX
  8
0
 10
104.774814815
 20
-140.473703704
 30
0.0
  0
VERTEX
  8
0
 10
104.5
 20
-136.25
 30
0.0
  0
VERTEX
  8
0
 10
100.0
 20
-136.25
 30
0.0
  0
VERTEX
  8
0
 10
98.88
 20
-137.875
 30
0.0
  0
VERTEX
  8
0
 10
95.0
 20
-139.5
 30
0.0
  0
VERTEX
  8
0
 10
91.7875
 20
-138.095
 30
0.0
  0
VERTEX
  8
0
 10
90.0
 20
-134.5
 30
0.0
  0
VERTEX
  8
0
 10
87.5
 20
-131.25
 30
0.0
  0
VERTEX
  8
0
 10
86.0
 20
-127.5
 30
0.0
  0
VERTEX
  8
0
 10
85.68976
 20
-121.84096
 30
0.0
  0
VERTEX
  8
0
 10
85.48368
 20
-117.79808
 30
0.0
  0
VERTEX
  8
0
 10
85.33472
 20
-114.23472
 30
0.0
  0
VERTEX
  8
0
 10
85.19584
 20
-110.01424
 30
0.0
  0
VERTEX
  8
0
 10
85.02
 20
-104.0
 30
0.0
  0
VERTEX
  8
0
 10
85.9699074074
 20
-98.9076388889
 30
0.0
  0
VERTEX
  8
0
 10
86.7525925926
 20
-95.1444444444
 30
0.0
  0
VERTEX
  8
0
 10
87.5075
 20
-91.96625
 30
0.0
  0
VERTEX
  8
0
 10
88.3740740741
 20
-88.6288888889
 30
0.0
  0
VERTEX
  8
0
 10
89.4917592593
 20
-84.3881944444
 30
0.0
  0
VERTEX
  8
0
 10
91.0
 20
-78.5
 30
0.0
  0
VERTEX
  8
0
 10
92.57125
 20
-75.7775
 30
0.0
  0
VERTEX
  8
0
 10
95.5
 20
-74.0
 30
0.0
  0
VERTEX
  8
0
 10
99.037037037
 20
-73.3866666667
 30
0.0
  0
VERTEX
  8
0
 10
102.796296296
 20
-73.1066666667
 30
0.0
  0
VERTEX
  8
0
 10
110.0
 20
-73.04
 30
0.0
  0
VERTEX
  8
0
 10
117.203703704
 20
-73.3111111111
 30
0.0
  0
VERTEX
  8
0
 10
120.962962963
 20
-73.5688888889
 30
0.0
  0
VERTEX
  8
0
 10
124.5
 20
-74.0
 30
0.0
  0
VERTEX
  8
0
 10
127.25875
 20
-75.84125
 30
0.0
  0
VERTEX
  8
0
 10
128.99
 20
-78.53
 30
0.0
  0
VERTEX
  8
0
 10
130.503333333
 20
-84.3041666667
 30
0.0
  0
VERTEX
  8
0
 10
131.626666667
 20
-88.4933333333
 30
0.0
  0
VERTEX
  8
0
 10
132.5
 20
-91.8275
 30
0.0
  0
VERTEX
  8
0
 10
133.263333333
 20
-95.0366666667
 30
0.0
  0
VERTEX
  8
0
 10
134.056666667
 20
-98.8508333333
 30
0.0
  0
VERTEX
  8
0
 10
135.02
 20
-104.0
 30
0.0
  0
VERTEX
  8
0
 10
134.80832
 20
-110.00464
 30
0.0
  0
VERTEX
  8
0
 10
134.61056
 20
-114.20592
 30
0.0
  0
VERTEX
  8
0
 10
134.41664
 20
-117.75488
 30
0.0
  0
VERTEX
  8
0
 10
134.21648
 20
-121.80256
 30
0.0
  0
VERTEX
  8
0
 10
134.0
 20
-127.5
 30
0.0
  0
VERTEX
  8
0
 10
132.5
 20
-131.25
 30
0.0
  0
VERTEX
  8
0
 10
130.0
 20
-134.5
 30
0.0
  0
VERTEX
  8
0
 10
127.83
 20
-138.07625
 30
0.0
  0
VERTEX
  8
0
 10
125.0
 20
-139.5
 30
0.0
  0
VERTEX
  8
0
 10
121.045
 20
-137.875
 30
0.0
  0
SEQEND
  8
0
  0
ENDSEC
  0
EOF
