  0
SECTION
  2
HEADER
  9
$ACADVER
  1
AC1009
  9
$EXTMIN
 10
0.0
 20
0.0
 30
0.0
  9
$EXTMAX
 10
1000.0
 20
1000.0
 30
0.0
  9
$FILLMODE
 70
 0
  9
$SPLFRAME
 70
 1
  0
ENDSEC
  0
SECTION
  2
TABLES
  0
TABLE
  2
LAYER
 70
1
  0
LAYER
  2
0
 70
     0
 62
     7
  6
CONTINUOUS
  0
ENDTAB
  0
ENDSEC
  0
SECTION
  2
ENTITIES
  0
POLYLINE
  8
0
 62
     165
 66
     1
 10
0
 20
0
 30
0.0
 70
     1
 40
7.2
 41
7.2
  0
VERTEX
  8
0
 10
11.0784
 20
-24.6756
 30
0.0
 40
0.1
 41
0.1
  0
VERTEX
  8
0
 10
6.57844
 20
-24.6756
 30
0.0
 40
0.1
 41
0.1
  0
VERTEX
  8
0
 10
6.55843
 20
-26.0654
 30
0.0
 40
0.1
 41
0.1
  0
VERTEX
  8
0
 10
6.44846
 20
-27.7256
 30
0.0
 40
0.1
 41
0.1
  0
VERTEX
  8
0
 10
6.20844
 20
-29.4956
 30
0.0
 40
0.1
 41
0.1
  0
VERTEX
  8
0
 10
6.01844
 20
-30.3856
 30
0.0
 40
0.1
 41
0.1
  0
VERTEX
  8
0
 10
5.76844
 20
-31.2556
 30
0.0
 40
0.1
 41
0.1
  0
VERTEX
  8
0
 10
5.46843
 20
-32.0856
 30
0.0
 40
0.1
 41
0.1
  0
VERTEX
  8
0
 10
5.09847
 20
-32.8656
 30
0.0
 40
0.1
 41
0.1
  0
VERTEX
  8
0
 10
4.64844
 20
-33.5654
 30
0.0
 40
0.1
 41
0.1
  0
VERTEX
  8
0
 10
4.11843
 20
-34.1756
 30
0.0
 40
0.1
 41
0.1
  0
VERTEX
  8
0
 10
3.82844
 20
-34.4456
 30
0.0
 40
0.1
 41
0.1
  0
VERTEX
  8
0
 10
3.50846
 20
-34.6856
 30
0.0
 40
0.1
 41
0.1
  0
VERTEX
  8
0
 10
3.16846
 20
-34.8956
 30
0.0
 40
0.1
 41
0.1
  0
VERTEX
  8
0
 10
2.79844
 20
-35.0654
 30
0.0
 40
0.1
 41
0.1
  0
VERTEX
  8
0
 10
2.40842
 20
-35.2056
 30
0.0
 40
0.1
 41
0.1
  0
VERTEX
  8
0
 10
1.99843
 20
-35.3154
 30
0.0
 40
0.1
 41
0.1
  0
VERTEX
  8
0
 10
1.54844
 20
-35.3756
 30
0.0
 40
0.1
 41
0.1
  0
VERTEX
  8
0
 10
1.07845
 20
-35.3956
 30
0.0
 40
0.1
 41
0.1
  0
VERTEX
  8
0
 10
0.608453
 20
-35.3756
 30
0.0
 40
0.1
 41
0.1
  0
VERTEX
  8
0
 10
0.158421
 20
-35.3154
 30
0.0
 40
0.1
 41
0.1
  0
VERTEX
  8
0
 10
-0.251574
 20
-35.2056
 30
0.0
 40
0.1
 41
0.1
  0
VERTEX
  8
0
 10
-0.641547
 20
-35.0654
 30
0.0
 40
0.1
 41
0.1
  0
VERTEX
  8
0
 10
-1.01156
 20
-34.8956
 30
0.0
 40
0.1
 41
0.1
  0
VERTEX
  8
0
 10
-1.35156
 20
-34.6856
 30
0.0
 40
0.1
 41
0.1
  0
VERTEX
  8
0
 10
-1.67156
 20
-34.4456
 30
0.0
 40
0.1
 41
0.1
  0
VERTEX
  8
0
 10
-1.96153
 20
-34.1756
 30
0.0
 40
0.1
 41
0.1
  0
VERTEX
  8
0
 10
-2.49154
 20
-33.5654
 30
0.0
 40
0.1
 41
0.1
  0
VERTEX
  8
0
 10
-2.94157
 20
-32.8656
 30
0.0
 40
0.1
 41
0.1
  0
VERTEX
  8
0
 10
-3.31158
 20
-32.0856
 30
0.0
 40
0.1
 41
0.1
  0
VERTEX
  8
0
 10
-3.61154
 20
-31.2556
 30
0.0
 40
0.1
 41
0.1
  0
VERTEX
  8
0
 10
-3.86154
 20
-30.3856
 30
0.0
 40
0.1
 41
0.1
  0
VERTEX
  8
0
 10
-4.05154
 20
-29.4956
 30
0.0
 40
0.1
 41
0.1
  0
VERTEX
  8
0
 10
-4.29156
 20
-27.7256
 30
0.0
 40
0.1
 41
0.1
  0
VERTEX
  8
0
 10
-4.40153
 20
-26.0654
 30
0.0
 40
0.1
 41
0.1
  0
VERTEX
  8
0
 10
-4.42156
 20
-24.6756
 30
0.0
 40
0.1
 41
0.1
  0
VERTEX
  8
0
 10
-8.92156
 20
-24.6756
 30
0.0
 40
0.1
 41
0.1
  0
VERTEX
  8
0
 10
-9.46153
 20
-25.6856
 30
0.0
 40
0.1
 41
0.1
  0
VERTEX
  8
0
 10
-9.63157
 20
-25.9556
 30
0.0
 40
0.1
 41
0.1
  0
VERTEX
  8
0
 10
-9.82156
 20
-26.2256
 30
0.0
 40
0.1
 41
0.1
  0
VERTEX
  8
0
 10
-10.0416
 20
-26.4956
 30
0.0
 40
0.1
 41
0.1
  0
VERTEX
  8
0
 10
-10.2916
 20
-26.7456
 30
0.0
 40
0.1
 41
0.1
  0
VERTEX
  8
0
 10
-10.5716
 20
-26.9856
 30
0.0
 40
0.1
 41
0.1
  0
VERTEX
  8
0
 10
-10.8915
 20
-27.2156
 30
0.0
 40
0.1
 41
0.1
  0
VERTEX
  8
0
 10
-11.2616
 20
-27.4156
 30
0.0
 40
0.1
 41
0.1
  0
VERTEX
  8
0
 10
-11.6815
 20
-27.5856
 30
0.0
 40
0.1
 41
0.1
  0
VERTEX
  8
0
 10
-12.1515
 20
-27.7256
 30
0.0
 40
0.1
 41
0.1
  0
VERTEX
  8
0
 10
-12.6815
 20
-27.8356
 30
0.0
 40
0.1
 41
0.1
  0
VERTEX
  8
0
 10
-13.2616
 20
-27.9056
 30
0.0
 40
0.1
 41
0.1
  0
VERTEX
  8
0
 10
-13.9215
 20
-27.9256
 30
0.0
 40
0.1
 41
0.1
  0
VERTEX
  8
0
 10
-14.4415
 20
-27.9056
 30
0.0
 40
0.1
 41
0.1
  0
VERTEX
  8
0
 10
-14.9215
 20
-27.8356
 30
0.0
 40
0.1
 41
0.1
  0
VERTEX
  8
0
 10
-15.3715
 20
-27.7356
 30
0.0
 40
0.1
 41
0.1
  0
VERTEX
  8
0
 10
-15.7815
 20
-27.5856
 30
0.0
 40
0.1
 41
0.1
  0
VERTEX
  8
0
 10
-16.1615
 20
-27.3956
 30
0.0
 40
0.1
 41
0.1
  0
VERTEX
  8
0
 10
-16.5015
 20
-27.1656
 30
0.0
 40
0.1
 41
0.1
  0
VERTEX
  8
0
 10
-16.8215
 20
-26.8956
 30
0.0
 40
0.1
 41
0.1
  0
VERTEX
  8
0
 10
-17.1215
 20
-26.5956
 30
0.0
 40
0.1
 41
0.1
  0
VERTEX
  8
0
 10
-17.3915
 20
-26.2556
 30
0.0
 40
0.1
 41
0.1
  0
VERTEX
  8
0
 10
-17.6515
 20
-25.8756
 30
0.0
 40
0.1
 41
0.1
  0
VERTEX
  8
0
 10
-17.8815
 20
-25.4656
 30
0.0
 40
0.1
 41
0.1
  0
VERTEX
  8
0
 10
-18.1115
 20
-25.0156
 30
0.0
 40
0.1
 41
0.1
  0
VERTEX
  8
0
 10
-18.5315
 20
-24.0354
 30
0.0
 40
0.1
 41
0.1
  0
VERTEX
  8
0
 10
-18.9215
 20
-22.9256
 30
0.0
 40
0.1
 41
0.1
  0
VERTEX
  8
0
 10
-19.3515
 20
-22.5956
 30
0.0
 40
0.1
 41
0.1
  0
VERTEX
  8
0
 10
-19.7315
 20
-22.2656
 30
0.0
 40
0.1
 41
0.1
  0
VERTEX
  8
0
 10
-20.0715
 20
-21.9556
 30
0.0
 40
0.1
 41
0.1
  0
VERTEX
  8
0
 10
-20.3615
 20
-21.6256
 30
0.0
 40
0.1
 41
0.1
  0
VERTEX
  8
0
 10
-20.6415
 20
-21.2956
 30
0.0
 40
0.1
 41
0.1
  0
VERTEX
  8
0
 10
-20.9015
 20
-20.9356
 30
0.0
 40
0.1
 41
0.1
  0
VERTEX
  8
0
 10
-21.4215
 20
-20.1356
 30
0.0
 40
0.1
 41
0.1
  0
VERTEX
  8
0
 10
-21.6715
 20
-19.6756
 30
0.0
 40
0.1
 41
0.1
  0
VERTEX
  8
0
 10
-21.9115
 20
-19.1756
 30
0.0
 40
0.1
 41
0.1
  0
VERTEX
  8
0
 10
-22.1415
 20
-18.6456
 30
0.0
 40
0.1
 41
0.1
  0
VERTEX
  8
0
 10
-22.3515
 20
-18.0956
 30
0.0
 40
0.1
 41
0.1
  0
VERTEX
  8
0
 10
-22.5415
 20
-17.5354
 30
0.0
 40
0.1
 41
0.1
  0
VERTEX
  8
0
 10
-22.7015
 20
-16.9856
 30
0.0
 40
0.1
 41
0.1
  0
VERTEX
  8
0
 10
-22.8315
 20
-16.4456
 30
0.0
 40
0.1
 41
0.1
  0
VERTEX
  8
0
 10
-22.9215
 20
-15.9256
 30
0.0
 40
0.1
 41
0.1
  0
VERTEX
  8
0
 10
-23.4415
 20
-10.5155
 30
0.0
 40
0.1
 41
0.1
  0
VERTEX
  8
0
 10
-23.6515
 20
-5.67551
 30
0.0
 40
0.1
 41
0.1
  0
VERTEX
  8
0
 10
-23.9015
 20
7.57449
 30
0.0
 40
0.1
 41
0.1
  0
VERTEX
  8
0
 10
-22.5515
 20
14.6644
 30
0.0
 40
0.1
 41
0.1
  0
VERTEX
  8
0
 10
-21.4115
 20
19.6044
 30
0.0
 40
0.1
 41
0.1
  0
VERTEX
  8
0
 10
-17.9215
 20
33.0744
 30
0.0
 40
0.1
 41
0.1
  0
VERTEX
  8
0
 10
-17.8115
 20
33.4544
 30
0.0
 40
0.1
 41
0.1
  0
VERTEX
  8
0
 10
-17.6715
 20
33.8244
 30
0.0
 40
0.1
 41
0.1
  0
VERTEX
  8
0
 10
-17.5115
 20
34.1846
 30
0.0
 40
0.1
 41
0.1
  0
VERTEX
  8
0
 10
-17.3315
 20
34.5344
 30
0.0
 40
0.1
 41
0.1
  0
VERTEX
  8
0
 10
-17.1215
 20
34.8644
 30
0.0
 40
0.1
 41
0.1
  0
VERTEX
  8
0
 10
-16.8815
 20
35.1944
 30
0.0
 40
0.1
 41
0.1
  0
VERTEX
  8
0
 10
-16.6315
 20
35.5044
 30
0.0
 40
0.1
 41
0.1
  0
VERTEX
  8
0
 10
-16.3515
 20
35.7944
 30
0.0
 40
0.1
 41
0.1
  0
VERTEX
  8
0
 10
-16.0515
 20
36.0744
 30
0.0
 40
0.1
 41
0.1
  0
VERTEX
  8
0
 10
-15.7315
 20
36.3444
 30
0.0
 40
0.1
 41
0.1
  0
VERTEX
  8
0
 10
-15.3915
 20
36.5944
 30
0.0
 40
0.1
 41
0.1
  0
VERTEX
  8
0
 10
-15.0315
 20
36.8244
 30
0.0
 40
0.1
 41
0.1
  0
VERTEX
  8
0
 10
-14.6515
 20
37.0444
 30
0.0
 40
0.1
 41
0.1
  0
VERTEX
  8
0
 10
-14.2615
 20
37.2344
 30
0.0
 40
0.1
 41
0.1
  0
VERTEX
  8
0
 10
-13.8516
 20
37.4144
 30
0.0
 40
0.1
 41
0.1
  0
VERTEX
  8
0
 10
-13.4216
 20
37.5744
 30
0.0
 40
0.1
 41
0.1
  0
VERTEX
  8
0
 10
-10.6616
 20
38.0744
 30
0.0
 40
0.1
 41
0.1
  0
VERTEX
  8
0
 10
-9.49154
 20
38.2344
 30
0.0
 40
0.1
 41
0.1
  0
VERTEX
  8
0
 10
-8.23156
 20
38.3644
 30
0.0
 40
0.1
 41
0.1
  0
VERTEX
  8
0
 10
-4.77154
 20
38.5044
 30
0.0
 40
0.1
 41
0.1
  0
VERTEX
  8
0
 10
1.07845
 20
38.5344
 30
0.0
 40
0.1
 41
0.1
  0
VERTEX
  8
0
 10
10.3885
 20
38.1444
 30
0.0
 40
0.1
 41
0.1
  0
VERTEX
  8
0
 10
12.8185
 20
37.9244
 30
0.0
 40
0.1
 41
0.1
  0
VERTEX
  8
0
 10
15.5785
 20
37.5744
 30
0.0
 40
0.1
 41
0.1
  0
VERTEX
  8
0
 10
16.0085
 20
37.4244
 30
0.0
 40
0.1
 41
0.1
  0
VERTEX
  8
0
 10
16.4185
 20
37.2444
 30
0.0
 40
0.1
 41
0.1
  0
VERTEX
  8
0
 10
16.7985
 20
37.0444
 30
0.0
 40
0.1
 41
0.1
  0
VERTEX
  8
0
 10
17.1485
 20
36.8244
 30
0.0
 40
0.1
 41
0.1
  0
VERTEX
  8
0
 10
17.4785
 20
36.5744
 30
0.0
 40
0.1
 41
0.1
  0
VERTEX
  8
0
 10
17.7785
 20
36.3144
 30
0.0
 40
0.1
 41
0.1
  0
VERTEX
  8
0
 10
18.0685
 20
36.0344
 30
0.0
 40
0.1
 41
0.1
  0
VERTEX
  8
0
 10
18.3385
 20
35.7344
 30
0.0
 40
0.1
 41
0.1
  0
VERTEX
  8
0
 10
18.8285
 20
35.1044
 30
0.0
 40
0.1
 41
0.1
  0
VERTEX
  8
0
 10
19.2685
 20
34.4346
 30
0.0
 40
0.1
 41
0.1
  0
VERTEX
  8
0
 10
20.0685
 20
33.0444
 30
0.0
 40
0.1
 41
0.1
  0
VERTEX
  8
0
 10
23.5785
 20
19.7444
 30
0.0
 40
0.1
 41
0.1
  0
VERTEX
  8
0
 10
24.7285
 20
14.7544
 30
0.0
 40
0.1
 41
0.1
  0
VERTEX
  8
0
 10
26.0985
 20
7.57449
 30
0.0
 40
0.1
 41
0.1
  0
VERTEX
  8
0
 10
25.8285
 20
-5.7755
 30
0.0
 40
0.1
 41
0.1
  0
VERTEX
  8
0
 10
25.6185
 20
-10.6355
 30
0.0
 40
0.1
 41
0.1
  0
VERTEX
  8
0
 10
25.0785
 20
-15.9256
 30
0.0
 40
0.1
 41
0.1
  0
VERTEX
  8
0
 10
24.9985
 20
-16.4456
 30
0.0
 40
0.1
 41
0.1
  0
VERTEX
  8
0
 10
24.8685
 20
-16.9856
 30
0.0
 40
0.1
 41
0.1
  0
VERTEX
  8
0
 10
24.7085
 20
-17.5354
 30
0.0
 40
0.1
 41
0.1
  0
VERTEX
  8
0
 10
24.5185
 20
-18.0956
 30
0.0
 40
0.1
 41
0.1
  0
VERTEX
  8
0
 10
24.3085
 20
-18.6456
 30
0.0
 40
0.1
 41
0.1
  0
VERTEX
  8
0
 10
24.0685
 20
-19.1756
 30
0.0
 40
0.1
 41
0.1
  0
VERTEX
  8
0
 10
23.8285
 20
-19.6756
 30
0.0
 40
0.1
 41
0.1
  0
VERTEX
  8
0
 10
23.5785
 20
-20.1356
 30
0.0
 40
0.1
 41
0.1
  0
VERTEX
  8
0
 10
23.4585
 20
-20.4156
 30
0.0
 40
0.1
 41
0.1
  0
VERTEX
  8
0
 10
23.3185
 20
-20.6756
 30
0.0
 40
0.1
 41
0.1
  0
VERTEX
  8
0
 10
23.1785
 20
-20.9156
 30
0.0
 40
0.1
 41
0.1
  0
VERTEX
  8
0
 10
23.0185
 20
-21.1456
 30
0.0
 40
0.1
 41
0.1
  0
VERTEX
  8
0
 10
22.6985
 20
-21.5556
 30
0.0
 40
0.1
 41
0.1
  0
VERTEX
  8
0
 10
22.3585
 20
-21.9156
 30
0.0
 40
0.1
 41
0.1
  0
VERTEX
  8
0
 10
22.0185
 20
-22.2256
 30
0.0
 40
0.1
 41
0.1
  0
VERTEX
  8
0
 10
21.6785
 20
-22.4956
 30
0.0
 40
0.1
 41
0.1
  0
VERTEX
  8
0
 10
21.0785
 20
-22.9256
 30
0.0
 40
0.1
 41
0.1
  0
VERTEX
  8
0
 10
20.6085
 20
-24.0856
 30
0.0
 40
0.1
 41
0.1
  0
VERTEX
  8
0
 10
20.0985
 20
-25.0956
 30
0.0
 40
0.1
 41
0.1
  0
VERTEX
  8
0
 10
19.8285
 20
-25.5354
 30
0.0
 40
0.1
 41
0.1
  0
VERTEX
  8
0
 10
19.5585
 20
-25.9456
 30
0.0
 40
0.1
 41
0.1
  0
VERTEX
  8
0
 10
19.2685
 20
-26.3256
 30
0.0
 40
0.1
 41
0.1
  0
VERTEX
  8
0
 10
18.9685
 20
-26.6556
 30
0.0
 40
0.1
 41
0.1
  0
VERTEX
  8
0
 10
18.6585
 20
-26.9556
 30
0.0
 40
0.1
 41
0.1
  0
VERTEX
  8
0
 10
18.3385
 20
-27.2056
 30
0.0
 40
0.1
 41
0.1
  0
VERTEX
  8
0
 10
17.9985
 20
-27.4256
 30
0.0
 40
0.1
 41
0.1
  0
VERTEX
  8
0
 10
17.6485
 20
-27.6056
 30
0.0
 40
0.1
 41
0.1
  0
VERTEX
  8
0
 10
17.2785
 20
-27.7456
 30
0.0
 40
0.1
 41
0.1
  0
VERTEX
  8
0
 10
16.8985
 20
-27.8456
 30
0.0
 40
0.1
 41
0.1
  0
VERTEX
  8
0
 10
16.4985
 20
-27.9056
 30
0.0
 40
0.1
 41
0.1
  0
VERTEX
  8
0
 10
16.0785
 20
-27.9256
 30
0.0
 40
0.1
 41
0.1
  0
VERTEX
  8
0
 10
15.3985
 20
-27.9056
 30
0.0
 40
0.1
 41
0.1
  0
VERTEX
  8
0
 10
14.7885
 20
-27.8556
 30
0.0
 40
0.1
 41
0.1
  0
VERTEX
  8
0
 10
14.2585
 20
-27.7656
 30
0.0
 40
0.1
 41
0.1
  0
VERTEX
  8
0
 10
13.7984
 20
-27.6356
 30
0.0
 40
0.1
 41
0.1
  0
VERTEX
  8
0
 10
13.3984
 20
-27.4856
 30
0.0
 40
0.1
 41
0.1
  0
VERTEX
  8
0
 10
13.0484
 20
-27.3154
 30
0.0
 40
0.1
 41
0.1
  0
VERTEX
  8
0
 10
12.7484
 20
-27.1156
 30
0.0
 40
0.1
 41
0.1
  0
VERTEX
  8
0
 10
12.4884
 20
-26.8956
 30
0.0
 40
0.1
 41
0.1
  0
VERTEX
  8
0
 10
12.2585
 20
-26.6556
 30
0.0
 40
0.1
 41
0.1
  0
VERTEX
  8
0
 10
12.0685
 20
-26.3956
 30
0.0
 40
0.1
 41
0.1
  0
VERTEX
  8
0
 10
11.8885
 20
-26.1256
 30
0.0
 40
0.1
 41
0.1
  0
VERTEX
  8
0
 10
11.7184
 20
-25.8456
 30
0.0
 40
0.1
 41
0.1
  0
VERTEX
  8
0
 10
11.0784
 20
-24.6756
 30
0.0
 40
0.1
 41
0.1
  0
SEQEND
 8
0
  0
ENDSEC
  0
EOF
