<?xml version="1.0" encoding="UTF-8" standalone="no"?>
<!-- Created with Inkscape (http://www.inkscape.org/) -->

<svg
   xmlns:dc="http://purl.org/dc/elements/1.1/"
   xmlns:cc="http://creativecommons.org/ns#"
   xmlns:rdf="http://www.w3.org/1999/02/22-rdf-syntax-ns#"
   xmlns:svg="http://www.w3.org/2000/svg"
   xmlns="http://www.w3.org/2000/svg"
   xmlns:sodipodi="http://sodipodi.sourceforge.net/DTD/sodipodi-0.dtd"
   xmlns:inkscape="http://www.inkscape.org/namespaces/inkscape"
   width="744.09448"
   height="1052.3622"
   id="svg2"
   version="1.1"
   inkscape:version="0.91 r"
   viewBox="0 0 744.09448 1052.3622"
   sodipodi:docname="ma_silk.svg">
  <defs
     id="defs4">
    <clipPath
       id="clipPath7150"
       clipPathUnits="userSpaceOnUse">
      <path
         inkscape:connector-curvature="0"
         id="path7152"
         d="m 0,841.89 595.28,0 L 595.28,0 0,0 0,841.89 Z" />
    </clipPath>
  </defs>
  <sodipodi:namedview
     id="base"
     pagecolor="#ffffff"
     bordercolor="#666666"
     borderopacity="1.0"
     inkscape:pageopacity="0.0"
     inkscape:pageshadow="2"
     inkscape:zoom="1.4"
     inkscape:cx="285.90695"
     inkscape:cy="607.06527"
     inkscape:document-units="px"
     inkscape:current-layer="g7154"
     showgrid="false"
     inkscape:window-width="1366"
     inkscape:window-height="744"
     inkscape:window-x="0"
     inkscape:window-y="24"
     inkscape:window-maximized="1" />
  <metadata
     id="metadata7">
    <rdf:RDF>
      <cc:Work
         rdf:about="">
        <dc:format>image/svg+xml</dc:format>
        <dc:type
           rdf:resource="http://purl.org/dc/dcmitype/StillImage" />
        <dc:title></dc:title>
      </cc:Work>
    </rdf:RDF>
  </metadata>
  <g
     inkscape:label="Layer 1"
     inkscape:groupmode="layer"
     id="layer1">
    <g
       clip-path="url(#clipPath7150)"
       id="g7148"
       transform="matrix(0.88958925,0,0,-0.88958925,58.197155,791.58317)">
      <g
         transform="translate(451.30511,202.96553)"
         id="g7154"
         style="fill:none;stroke:#000000;stroke-opacity:1">
        <path
           style="fill:none;fill-opacity:1;fill-rule:nonzero;stroke:#000000;stroke-opacity:1"
           d="m 0,0 c -14.707873,-0.09288689 -20.703319,16.498459 -21.312862,28.77132 -1.781196,5.27485 3.431893,16.601891 -5.794138,13.77868 -8.275031,0.585995 -16.102661,2.193922 -18.972078,-7.448219 -9.138756,-10.478454 -27.380672,-5.252589 -30.939869,7.794121 -0.482522,9.530746 -11.245168,12.154183 -13.427881,21.127358 -8.633738,21.568506 -5.882699,45.32639 -7.608759,68.00884 -1.341665,22.39586 -2.675423,45.24506 4.070587,66.9479 6.616365,25.06201 11.699121,50.59726 19.437768,75.33237 5.866756,15.0718 23.311235,19.08057 37.846587,19.0619 29.9979473,1.54864 60.302792,2.29033 90.120927,-1.78503 14.258775,-2.17926 23.468563,-15.21341 25.38429,-28.76598 6.636941,-27.45093 14.590463,-54.63354 19.499428,-82.45726 3.38517,-20.26558 0.257569,-41.62208 0.02036,-62.31711 C 96.970015,97.266614 99.149564,74.256391 86.739793,56.253797 76.592395,51.379513 77.030027,39.460017 68.699625,32.855 58.78177,25.201318 43.909884,31.347784 40.233,42.777 34.942534,41.465329 25.368672,44.710132 22.587836,41.19519 22.204361,27.363403 21.267514,9.8226029 8.112594,1.8345284 5.6122614,0.56440033 2.7945944,-0.00809997 0,0 Z"
           id="path7156"
           inkscape:connector-curvature="0" />
      </g>
      <g
         transform="translate(223.9228,385.46915)"
         id="g7158">
        <path
           inkscape:connector-curvature="0"
           id="path7160"
           style="fill:#000000;fill-opacity:1;fill-rule:nonzero;stroke:none"
           d="m 0,0 c -44.61,0 -74.24,4.329 -81.57,5.52 2.19,9.349 10.96,46.609 13.84,56.769 l 1.09,3.881 c 2.6,9.26 4.31,15.389 6.51,19.609 2.06,3.991 10.63,7.76 17.63,7.76 1.189,0 3.689,0.11 7.16,0.25 7.46,0.311 19.84,0.82 32.02,0.82 12.331,0 24.921,-0.509 32.44,-0.81 3.6,-0.15 6.151,-0.26 7.35,-0.26 7,0 15.57,-3.769 17.631,-7.76 2.189,-4.21 3.899,-10.33 6.509,-19.58 l 1.09,-3.9 C 64.569,52.159 73.34,14.668 75.5,5.868 69.36,4.139 44.28,0 0,0 m 85.06,10.459 c -0.39,1.48 -0.77,2.85 -1.1,4.131 -0.18,0.67 -0.34,1.319 -0.49,1.949 -2.22,9.26 -12.55,51.29 -16.23,64.82 -3.71,13.54 -13.29,17.1 -22.9,18.54 -4.6,0.68 -24.569,2.101 -45.13,2.14 -22.25,0.02 -45.22,-1.41 -50.2,-2.14 -9.6,-1.44 -19.18,-5 -22.89,-18.54 -3.69,-13.53 -14.03,-55.56 -16.24,-64.82 -0.06,-0.26 -0.13,-0.519 -0.19,-0.789 -0.04,-0.141 -0.07,-0.281 -0.12,-0.431 -0.16,-0.67 -0.35,-1.36 -0.54,-2.08 -0.18,-0.66 -0.36,-1.35 -0.55,-2.069 -0.92,-3.42 -1.95,-7.41 -2.82,-12.25 3.95,-0.721 38.02,-6.569 93.63,-6.569 54.481,0 83.54,5.067 87.859,6.357 -0.67,3.3 -1.409,9.191 -2.089,11.751" />
      </g>
      <g
         transform="translate(312.0683,377.97505)"
         id="g7162">
        <path
           inkscape:connector-curvature="0"
           id="path7164"
           style="fill:#000000;fill-opacity:1;fill-rule:nonzero;stroke:none"
           d="m 0,0 c -4.318,-1.293 -34.377,-6.357 -88.859,-6.357 -55.611,0 -90.675,5.844 -94.628,6.56 -1.451,-8.014 -1.436,-18.347 -0.683,-32.246 1.473,-27.068 1.484,-60.561 4.43,-69.814 2.524,-7.9 3.964,-17.87 15.325,-22.849 1.96,-0.856 4.208,-1.572 6.822,-2.095 5.681,-1.133 12.336,-1.839 18.77,-2.265 13.642,-0.91 25.266,-0.578 25.266,-0.578 0,0 4.224,19.05 8.752,25.377 1.318,1.848 7.099,3.805 12.923,3.741 6.034,-0.076 12.126,-2.266 13.289,-4.457 3.355,-6.286 9.216,-24.661 9.216,-24.661 0,0 10.693,-0.309 23.738,0.48 6.899,0.419 14.175,1.134 20.299,2.363 1.894,0.384 3.588,0.856 5.127,1.421 l 0.011,0 c 12.912,4.701 14.375,15.25 17.01,23.523 2.946,9.253 2.946,42.746 4.429,69.814 C 2.089,-16.467 1.729,-8.378 0,0" />
      </g>
      <g
         transform="translate(236.3857,239.08535)"
         id="g7166">
        <path
           inkscape:connector-curvature="0"
           id="path7168"
           style="fill:#000000;fill-opacity:1;fill-rule:nonzero;stroke:none"
           d="m 0,0 c -0.074,-10.478 -1.889,-33.363 -16.175,-33.363 -14.296,0 -15.481,22.895 -15.282,33.363 -0.21,10.467 0.986,33.372 15.282,33.372 C -1.889,33.372 -0.074,10.467 0,0" />
      </g>
      <g
         transform="translate(173.2455,244.70255)"
         id="g7170">
        <path
           inkscape:connector-curvature="0"
           id="path7172"
           style="fill:#000000;fill-opacity:1;fill-rule:nonzero;stroke:none"
           d="m 0,0 c -2.404,-5.461 -6.19,-9.49 -12.203,-9.49 -7.519,0 -11.407,6.326 -13.389,13.851 1.96,-0.856 4.208,-1.572 6.821,-2.095 C -13.089,1.133 -6.434,0.427 0,0" />
      </g>
      <g
         transform="translate(291.8554,248.38915)"
         id="g7174">
        <path
           inkscape:connector-curvature="0"
           id="path7176"
           style="fill:#000000;fill-opacity:1;fill-rule:nonzero;stroke:none"
           d="m 0,0 c -2.204,-7.224 -6.245,-13.177 -13.532,-13.177 -5.969,0 -9.645,3.987 -11.894,9.394 6.899,0.417 14.175,1.133 20.299,2.362 C -3.233,-1.037 -1.539,-0.565 0,0" />
      </g>
      <g
         transform="translate(164.8071,350.92325)"
         id="g7178">
        <path
           inkscape:connector-curvature="0"
           id="path7180"
           style="fill:#fff200;fill-opacity:1;fill-rule:nonzero;stroke:none"
           d="m 0,0 c 0,-5.707 -4.784,-10.335 -10.697,-10.335 -5.913,0 -10.708,4.628 -10.708,10.335 0,5.703 4.795,10.329 10.708,10.329 C -4.784,10.329 0,5.703 0,0" />
      </g>
      <g
         transform="translate(300.1601,350.92325)"
         id="g7182">
        <path
           inkscape:connector-curvature="0"
           id="path7184"
           style="fill:#fff200;fill-opacity:1;fill-rule:nonzero;stroke:none"
           d="m 0,0 c 0,-5.707 -4.795,-10.335 -10.708,-10.335 -5.902,0 -10.697,4.628 -10.697,10.335 0,5.703 4.795,10.329 10.697,10.329 C -4.795,10.329 0,5.703 0,0" />
      </g>
      <g
         transform="translate(232.6269,292.69575)"
         id="g7186">
        <path
           inkscape:connector-curvature="0"
           id="path7188"
           style="fill:#fff200;fill-opacity:1;fill-rule:nonzero;stroke:none"
           d="m 0,0 c 0,-6.472 -5.437,-11.715 -12.139,-11.715 -6.704,0 -12.137,5.243 -12.137,11.715 0,6.471 5.433,11.712 12.137,11.712 C -5.437,11.712 0,6.471 0,0" />
      </g>
      <g
         transform="translate(177.4672,471.68845)"
         id="g7190">
        <path
           inkscape:connector-curvature="0"
           id="path7192"
           style="fill:#000000;fill-opacity:1;fill-rule:evenodd;stroke:none"
           d="m 0,0 4.098,0 c 1.72,-11.675 3.437,-23.327 5.155,-34.994 1.784,11.656 3.566,23.315 5.352,34.997 l 3.887,0 c 0.529,-13.73 1.058,-27.459 1.589,-41.252 l -3.151,0 c -0.442,10.924 -1.118,21.843 -0.704,32.792 -0.061,0.006 -0.124,0.011 -0.185,0.016 -0.184,-1.113 -0.371,-2.226 -0.551,-3.339 -1.248,-7.66 -2.492,-15.322 -3.742,-22.982 -0.293,-1.8 -0.588,-3.599 -0.915,-5.393 -0.037,-0.196 -0.292,-0.492 -0.458,-0.501 C 9.419,-40.703 8.459,-40.679 7.353,-40.679 5.696,-29.93 4.042,-19.198 2.49,-9.143 2.182,-19.389 1.854,-30.322 1.524,-41.281 l -3.11,0 C -1.057,-27.521 -0.53,-13.794 0,0" />
      </g>
      <g
         transform="translate(256.0751,460.50875)"
         id="g7194">
        <path
           inkscape:connector-curvature="0"
           id="path7196"
           style="fill:#000000;fill-opacity:1;fill-rule:evenodd;stroke:none"
           d="m 0,0 0,-18.892 c 0.868,0 1.689,0.055 2.502,-0.011 2.166,-0.175 3.968,1.584 4.009,3.87 0.064,3.787 0.051,7.577 10e-4,11.365 C 6.484,-1.653 5.267,-0.153 3.597,-0.019 2.416,0.077 1.222,0 0,0 m 9.808,-30.101 -3.102,0 c -0.014,0.264 -0.034,0.51 -0.036,0.755 -0.002,1.638 0.007,3.276 -0.003,4.914 -0.013,1.859 -0.858,2.71 -2.705,2.725 -1.309,0.012 -2.616,0.003 -3.986,0.003 l 0,-8.369 -3.199,0 0,32.867 c 0.245,0.014 0.49,0.039 0.735,0.039 1.732,0.004 3.463,0.002 5.194,0.002 4.139,0 6.627,-2.168 6.801,-6.283 0.166,-3.946 0.066,-7.906 0.033,-11.859 -0.014,-1.805 -0.602,-3.401 -2.153,-4.555 1.871,-1.061 2.471,-2.7 2.428,-4.693 -0.04,-1.822 -0.007,-3.646 -0.007,-5.546" />
      </g>
      <g
         transform="translate(218.9423,463.31635)"
         id="g7198">
        <path
           inkscape:connector-curvature="0"
           id="path7200"
           style="fill:#000000;fill-opacity:1;fill-rule:evenodd;stroke:none"
           d="M 0,0 3.164,0 C 3.092,-6.422 3.021,-12.831 2.946,-19.335 c 0.525,1.269 1.013,2.474 1.52,3.672 2.127,5.036 4.264,10.067 6.376,15.11 0.199,0.474 0.457,0.613 0.941,0.591 0.832,-0.037 1.668,-0.01 2.613,-0.01 -0.736,-1.685 -1.423,-3.264 -2.115,-4.84 -2.161,-4.919 -4.314,-9.842 -6.498,-14.752 -0.23,-0.519 -0.171,-0.868 0.162,-1.315 2.803,-3.774 5.581,-7.568 8.367,-11.356 0.136,-0.187 0.262,-0.383 0.478,-0.697 -1.258,0 -2.414,-0.022 -3.568,0.023 -0.192,0.007 -0.409,0.281 -0.554,0.475 -2.207,2.962 -4.406,5.932 -6.606,8.899 -0.055,0.075 -0.118,0.142 -0.341,0.41 -0.233,-0.78 -0.572,-1.414 -0.586,-2.055 -0.065,-2.547 -0.027,-5.097 -0.027,-7.703 L 0,-32.883 0,0 Z" />
      </g>
      <g
         transform="translate(209.83,441.66255)"
         id="g7202">
        <path
           inkscape:connector-curvature="0"
           id="path7204"
           style="fill:#000000;fill-opacity:1;fill-rule:evenodd;stroke:none"
           d="M 0,0 C -0.632,4.953 -1.258,9.854 -1.882,14.755 -1.907,14.753 -1.934,14.751 -1.958,14.749 -2.619,9.839 -3.281,4.929 -3.945,0 L 0,0 Z m 4.871,-11.249 -3.097,0 C 1.349,-8.424 0.921,-5.59 0.486,-2.715 l -4.737,0 c -0.182,-1.118 -0.371,-2.261 -0.553,-3.405 -0.243,-1.547 -0.467,-3.098 -0.74,-4.64 -0.035,-0.197 -0.303,-0.491 -0.477,-0.502 -0.86,-0.051 -1.723,-0.024 -2.701,-0.024 1.695,11.015 3.377,21.952 5.071,32.964 1.042,0 2.068,0.018 3.09,-0.02 0.135,-0.005 0.348,-0.277 0.375,-0.449 0.534,-3.324 1.045,-6.651 1.563,-9.977 0.959,-6.168 1.92,-12.335 2.88,-18.503 0.2,-1.291 0.399,-2.582 0.614,-3.978" />
      </g>
      <g
         transform="translate(239.7968,441.78995)"
         id="g7206">
        <path
           inkscape:connector-curvature="0"
           id="path7208"
           style="fill:#000000;fill-opacity:1;fill-rule:evenodd;stroke:none"
           d="m 0,0 6.941,0 0,-2.772 -6.927,0 0,-5.764 8.683,0 0,-2.819 -11.84,0 0,32.871 11.851,0 0,-2.662 L 0,18.854 0,0 Z" />
      </g>
      <g
         transform="translate(191.9609,407.61855)"
         id="g7210">
        <path
           inkscape:connector-curvature="0"
           id="path7212"
           style="fill:#000000;fill-opacity:1;fill-rule:nonzero;stroke:none"
           d="M 0,0 6.014,0 3.012,15.991 0,0 Z m 8.212,-12.021 -1.81,10.069 -6.661,0 -1.876,-10.069 -1.565,0 5.935,31.446 1.701,0 5.789,-31.446 -1.513,0 z" />
      </g>
      <g
         transform="translate(212.6454,394.97405)"
         id="g7214">
        <path
           inkscape:connector-curvature="0"
           id="path7216"
           style="fill:#000000;fill-opacity:1;fill-rule:nonzero;stroke:none"
           d="m 0,0 c -1.241,0 -2.29,0.202 -3.115,0.603 -0.824,0.401 -1.5,0.969 -2.009,1.692 -0.52,0.737 -0.9,1.61 -1.132,2.596 C -6.49,5.889 -6.608,7 -6.608,8.193 l 0,14.878 1.525,0 0,-14.833 c 0,-2.042 0.415,-3.634 1.233,-4.735 0.855,-1.147 2.265,-1.729 4.191,-1.729 1.01,0 1.93,0.236 2.737,0.702 0.792,0.456 1.463,1.099 1.996,1.912 0.521,0.795 0.93,1.752 1.215,2.847 0.282,1.087 0.426,2.295 0.426,3.588 l 0,12.248 1.527,0 0,-22.448 -1.527,0 0,4.011 L 6.02,3.68 C 5.724,3.274 5.383,2.847 5.009,2.406 4.646,1.981 4.225,1.586 3.754,1.233 3.292,0.885 2.743,0.587 2.122,0.35 1.515,0.117 0.802,0 0,0" />
      </g>
      <g
         transform="translate(229.7656,394.97405)"
         id="g7218">
        <path
           inkscape:connector-curvature="0"
           id="path7220"
           style="fill:#000000;fill-opacity:1;fill-rule:nonzero;stroke:none"
           d="m 0,0 c -0.997,0 -1.729,0.285 -2.24,0.876 -0.528,0.607 -0.796,1.751 -0.796,3.395 l 0,17.204 -3.104,0 0,1.596 3.104,0 0,6.415 1.487,0 0,-6.415 4.621,0 0,-1.596 -4.621,0 0,-16.133 c 0,-0.57 0.013,-1.071 0.037,-1.487 0.027,-0.454 0.108,-0.823 0.247,-1.126 0.156,-0.336 0.407,-0.586 0.743,-0.741 0.313,-0.144 0.727,-0.214 1.261,-0.214 0.323,0 0.655,0.033 0.986,0.096 0.154,0.03 0.308,0.064 0.46,0.102 l 0,-1.515 C 1.948,0.395 1.671,0.31 1.346,0.2 0.946,0.067 0.492,0 0,0" />
      </g>
      <g
         transform="translate(244.205,416.89395)"
         id="g7222">
        <path
           inkscape:connector-curvature="0"
           id="path7224"
           style="fill:#000000;fill-opacity:1;fill-rule:nonzero;stroke:none"
           d="m 0,0 c -1.252,0 -2.344,-0.301 -3.243,-0.891 -0.879,-0.576 -1.603,-1.347 -2.15,-2.293 -0.538,-0.928 -0.94,-2.005 -1.194,-3.202 -0.253,-1.185 -0.381,-2.427 -0.381,-3.687 0,-1.442 0.148,-2.788 0.438,-4.006 0.293,-1.228 0.729,-2.299 1.294,-3.185 0.575,-0.902 1.308,-1.613 2.18,-2.114 0.881,-0.509 1.91,-0.768 3.056,-0.768 1.253,0 2.346,0.3 3.245,0.889 0.878,0.578 1.602,1.358 2.15,2.32 0.537,0.94 0.938,2.016 1.193,3.198 0.254,1.172 0.381,2.405 0.381,3.666 0,1.377 -0.127,2.685 -0.38,3.887 C 6.333,-4.972 5.93,-3.901 5.392,-3.001 4.842,-2.085 4.122,-1.35 3.253,-0.817 2.368,-0.275 1.273,0 0,0 m 0.006,-21.92 c -1.183,0.027 -2.305,0.285 -3.333,0.763 -1.031,0.477 -1.945,1.21 -2.721,2.173 -0.784,0.975 -1.416,2.216 -1.878,3.69 -0.464,1.481 -0.7,3.237 -0.7,5.221 0,1.664 0.187,3.237 0.555,4.677 0.364,1.432 0.918,2.698 1.645,3.763 0.717,1.052 1.625,1.895 2.697,2.503 1.056,0.6 2.312,0.903 3.729,0.903 1.443,0 2.71,-0.303 3.768,-0.903 1.073,-0.609 1.981,-1.444 2.698,-2.482 0.725,-1.049 1.272,-2.314 1.625,-3.758 0.355,-1.459 0.535,-3.042 0.535,-4.703 0,-1.808 -0.21,-3.46 -0.627,-4.916 -0.413,-1.446 -1.01,-2.703 -1.771,-3.74 -0.753,-1.02 -1.671,-1.819 -2.729,-2.37 -1.046,-0.545 -2.221,-0.821 -3.493,-0.821" />
      </g>
      <path
         inkscape:connector-curvature="0"
         id="path7226"
         style="fill:#ed1c24;fill-opacity:1;fill-rule:nonzero;stroke:none"
         d="m 235.0362,316.75495 -29.704,0 0,-7.061 29.704,0 0,7.061 z" />
      <g
         transform="translate(178.5229,350.92035)"
         id="g7228">
        <path
           inkscape:connector-curvature="0"
           id="path7230"
           style="fill:#ed1c24;fill-opacity:1;fill-rule:nonzero;stroke:none"
           d="m 0,0 -21.004,-21.005 4.992,-4.992 L 4.994,-4.993 0,0 Z" />
      </g>
      <g
         transform="translate(265.8486,350.92035)"
         id="g7232">
        <path
           inkscape:connector-curvature="0"
           id="path7234"
           style="fill:#ed1c24;fill-opacity:1;fill-rule:nonzero;stroke:none"
           d="M 0,0 21.004,-21.005 16.012,-25.997 -4.994,-4.993 0,0 Z" />
      </g>
    </g>
  </g>
</svg>
