M48
INCH,TZ
T1C0.031
T2C0.051
T3C0.120
%
G90
G05
T1
X033111Y-039017
X033818Y-039724
X033908Y-041879
X036171Y-039617
X037598Y-025591
X037598Y-027165
X037770Y-042520
X039370Y-043988
X039370Y-044988
X040970Y-042520
X041142Y-025591
X041142Y-027165
X042569Y-039617
X044832Y-041879
X044922Y-039724
X045629Y-039017
T2
X033858Y-035630
X034724Y-035630
X042559Y-035630
X044488Y-035630
T3
X029921Y-031496
X048819Y-031496
T0
M30
