%TF.GenerationSoftware,KiCad,Pcbnew,4.1.0-alpha+201607210716+6990~46~ubuntu15.10.1-product*%
%TF.CreationDate,2016-08-11T20:23:11+05:30*%
%TF.ProjectId,makerauto,6D616B65726175746F2E6B696361645F,rev?*%
%TF.FileFunction,Copper,L1,Top,Signal*%
%FSLAX46Y46*%
G04 Gerber Fmt 4.6, Leading zero omitted, Abs format (unit mm)*
G04 Created by KiCad (PCBNEW 4.1.0-alpha+201607210716+6990~46~ubuntu15.10.1-product) date Thu Aug 11 20:23:11 2016*
%MOMM*%
%LPD*%
G01*
G04 APERTURE LIST*
%ADD10C,0.050800*%
%ADD11C,2.500000*%
%ADD12C,6.096000*%
%ADD13O,2.200000X1.800000*%
%ADD14C,1.800000*%
%ADD15C,2.000000*%
%ADD16R,1.000000X1.450000*%
%ADD17C,1.000000*%
G04 APERTURE END LIST*
D10*
D11*
X108100000Y-90500000D03*
X88200000Y-90500000D03*
X86000000Y-90500000D03*
X113000000Y-90500000D03*
D12*
X76000000Y-80000000D03*
X124000000Y-80000000D03*
D13*
X100000000Y-114270000D03*
X100000000Y-111730000D03*
D14*
X116039447Y-99243395D02*
X115756605Y-98960553D01*
X114243395Y-101039447D02*
X113960553Y-100756605D01*
X84243395Y-98960553D02*
X83960553Y-99243395D01*
X86039447Y-100756605D02*
X85756605Y-101039447D01*
D10*
G36*
X89830850Y-103694455D02*
X88805545Y-102669150D01*
X89512652Y-101962043D01*
X90537957Y-102987348D01*
X89830850Y-103694455D01*
X89830850Y-103694455D01*
G37*
G36*
X88487348Y-105037957D02*
X87462043Y-104012652D01*
X88169150Y-103305545D01*
X89194455Y-104330850D01*
X88487348Y-105037957D01*
X88487348Y-105037957D01*
G37*
D15*
X91873682Y-100626318D03*
X86126318Y-106373682D03*
D10*
G36*
X111194455Y-102669150D02*
X110169150Y-103694455D01*
X109462043Y-102987348D01*
X110487348Y-101962043D01*
X111194455Y-102669150D01*
X111194455Y-102669150D01*
G37*
G36*
X112537957Y-104012652D02*
X111512652Y-105037957D01*
X110805545Y-104330850D01*
X111830850Y-103305545D01*
X112537957Y-104012652D01*
X112537957Y-104012652D01*
G37*
D15*
X108126318Y-100626318D03*
X113873682Y-106373682D03*
D16*
X100950000Y-108000000D03*
X99050000Y-108000000D03*
D15*
X104064000Y-108000000D03*
X95936000Y-108000000D03*
X104500000Y-69000000D03*
X95500000Y-65000000D03*
X104500000Y-65000000D03*
X95500000Y-69000000D03*
D17*
X100000000Y-105500000D02*
X100000000Y-92500000D01*
X102000000Y-90500000D02*
X108100000Y-90500000D01*
X100000000Y-92500000D02*
X102000000Y-90500000D01*
X95936000Y-108000000D02*
X95936000Y-105500000D01*
X94000000Y-105500000D02*
X89656498Y-105500000D01*
X93500000Y-105500000D02*
X95936000Y-105500000D01*
X89656498Y-105500000D02*
X88328249Y-104171751D01*
X93500000Y-105500000D02*
X94000000Y-105500000D01*
X88328249Y-104171751D02*
X88328249Y-104328249D01*
X110343502Y-105500000D02*
X111671751Y-104171751D01*
X95936000Y-105500000D02*
X100000000Y-105500000D01*
X100000000Y-105500000D02*
X110343502Y-105500000D01*
X113000000Y-90500000D02*
X108100000Y-90500000D01*
X88328249Y-104171751D02*
X86126318Y-106373682D01*
X99050000Y-108000000D02*
X95936000Y-108000000D01*
X111671751Y-104171751D02*
X113873682Y-106373682D01*
X104064000Y-109436000D02*
X101770000Y-111730000D01*
X101770000Y-111730000D02*
X100000000Y-111730000D01*
X104064000Y-108000000D02*
X104064000Y-109436000D01*
X100950000Y-108000000D02*
X104064000Y-108000000D01*
X114101974Y-100898026D02*
X113898026Y-100898026D01*
X113898026Y-100898026D02*
X112500000Y-99500000D01*
X112500000Y-99500000D02*
X109252636Y-99500000D01*
X109252636Y-99500000D02*
X108126318Y-100626318D01*
X110328249Y-102828249D02*
X108126318Y-100626318D01*
X90747364Y-99500000D02*
X87296052Y-99500000D01*
X87296052Y-99500000D02*
X85898026Y-100898026D01*
X91873682Y-100626318D02*
X90747364Y-99500000D01*
X89671751Y-102828249D02*
X91873682Y-100626318D01*
M02*
