%TF.GenerationSoftware,KiCad,Pcbnew,4.1.0-alpha+201607210716+6990~46~ubuntu15.10.1-product*%
%TF.CreationDate,2016-08-11T20:23:11+05:30*%
%TF.ProjectId,makerauto,6D616B65726175746F2E6B696361645F,rev?*%
%TF.FileFunction,Legend,Bot*%
%FSLAX46Y46*%
G04 Gerber Fmt 4.6, Leading zero omitted, Abs format (unit mm)*
G04 Created by KiCad (PCBNEW 4.1.0-alpha+201607210716+6990~46~ubuntu15.10.1-product) date Thu Aug 11 20:23:11 2016*
%MOMM*%
%LPD*%
G01*
G04 APERTURE LIST*
%ADD10C,0.050800*%
%ADD11C,0.101600*%
%ADD12C,0.075000*%
%ADD13C,0.002540*%
%ADD14C,0.300000*%
%ADD15C,0.150000*%
%ADD16C,0.200000*%
%ADD17C,2.900000*%
%ADD18C,6.496000*%
%ADD19O,2.600000X2.200000*%
%ADD20C,2.200000*%
%ADD21C,2.400000*%
G04 APERTURE END LIST*
D10*
D11*
X110504284Y-94001430D02*
G75*
G02X89600000Y-94300000I-10504284J3501430D01*
G01*
X89604242Y-86701550D02*
G75*
G02X110500000Y-87000000I10395758J-3798450D01*
G01*
X89600000Y-94300000D02*
X86600000Y-94300000D01*
X86600000Y-94300000D02*
X86600000Y-86700000D01*
X86600000Y-86700000D02*
X89600000Y-86700000D01*
X110500000Y-94000000D02*
X110500000Y-87000000D01*
D12*
X97840000Y-125620000D02*
X97840000Y-126080000D01*
X97750000Y-125620000D02*
X97700000Y-125620000D01*
X97800000Y-125650000D02*
X97750000Y-125620000D01*
X97820000Y-125670000D02*
X97800000Y-125650000D01*
X97840000Y-125740000D02*
X97820000Y-125670000D01*
X97400000Y-126080000D02*
X97350000Y-126050000D01*
X97500000Y-126080000D02*
X97400000Y-126080000D01*
X97540000Y-126050000D02*
X97500000Y-126080000D01*
X97560000Y-125980000D02*
X97540000Y-126050000D01*
X97560000Y-125710000D02*
X97560000Y-125980000D01*
X97530000Y-125650000D02*
X97560000Y-125710000D01*
X97490000Y-125620000D02*
X97530000Y-125650000D01*
X97390000Y-125620000D02*
X97490000Y-125620000D01*
X97350000Y-125660000D02*
X97390000Y-125620000D01*
X97330000Y-125730000D02*
X97350000Y-125660000D01*
X97330000Y-125850000D02*
X97330000Y-125730000D01*
X97330000Y-125850000D02*
X97560000Y-125850000D01*
X98080000Y-125710000D02*
X98080000Y-126080000D01*
X98110000Y-125650000D02*
X98080000Y-125710000D01*
X98150000Y-125620000D02*
X98110000Y-125650000D01*
X98250000Y-125620000D02*
X98150000Y-125620000D01*
X98300000Y-125650000D02*
X98250000Y-125620000D01*
X98240000Y-125810000D02*
X98290000Y-125840000D01*
X98120000Y-125810000D02*
X98240000Y-125810000D01*
X98080000Y-125780000D02*
X98120000Y-125810000D01*
X98130000Y-126080000D02*
X98080000Y-126040000D01*
X98250000Y-126080000D02*
X98130000Y-126080000D01*
X98300000Y-126040000D02*
X98250000Y-126080000D01*
X98320000Y-125980000D02*
X98300000Y-126040000D01*
X98320000Y-125910000D02*
X98320000Y-125980000D01*
X98290000Y-125840000D02*
X98320000Y-125910000D01*
X98870000Y-125620000D02*
X98770000Y-126080000D01*
X98770000Y-126080000D02*
X98680000Y-125740000D01*
X98680000Y-125740000D02*
X98580000Y-126080000D01*
X98580000Y-126080000D02*
X98480000Y-125620000D01*
X99060000Y-126050000D02*
X99100000Y-126080000D01*
X99100000Y-126080000D02*
X99210000Y-126080000D01*
X99210000Y-126080000D02*
X99250000Y-126050000D01*
X99250000Y-126050000D02*
X99270000Y-126020000D01*
X99270000Y-126020000D02*
X99300000Y-125950000D01*
X99300000Y-125950000D02*
X99300000Y-125750000D01*
X99300000Y-125750000D02*
X99270000Y-125680000D01*
X99270000Y-125680000D02*
X99250000Y-125650000D01*
X99250000Y-125650000D02*
X99190000Y-125610000D01*
X99190000Y-125610000D02*
X99120000Y-125610000D01*
X99120000Y-125610000D02*
X99060000Y-125650000D01*
X99060000Y-125380000D02*
X99060000Y-126080000D01*
X99580000Y-125740000D02*
X99560000Y-125670000D01*
X99560000Y-125670000D02*
X99540000Y-125650000D01*
X99540000Y-125650000D02*
X99490000Y-125620000D01*
X99490000Y-125620000D02*
X99440000Y-125620000D01*
X99580000Y-125620000D02*
X99580000Y-126080000D01*
X100030000Y-125840000D02*
X100060000Y-125910000D01*
X100060000Y-125910000D02*
X100060000Y-125980000D01*
X100060000Y-125980000D02*
X100040000Y-126040000D01*
X100040000Y-126040000D02*
X99990000Y-126080000D01*
X99990000Y-126080000D02*
X99870000Y-126080000D01*
X99870000Y-126080000D02*
X99820000Y-126040000D01*
X99820000Y-125780000D02*
X99860000Y-125810000D01*
X99860000Y-125810000D02*
X99980000Y-125810000D01*
X99980000Y-125810000D02*
X100030000Y-125840000D01*
X100040000Y-125650000D02*
X99990000Y-125620000D01*
X99990000Y-125620000D02*
X99890000Y-125620000D01*
X99890000Y-125620000D02*
X99850000Y-125650000D01*
X99850000Y-125650000D02*
X99820000Y-125710000D01*
X99820000Y-125710000D02*
X99820000Y-126080000D01*
X100490000Y-125690000D02*
X100470000Y-125650000D01*
X100470000Y-125650000D02*
X100420000Y-125620000D01*
X100420000Y-125620000D02*
X100340000Y-125620000D01*
X100340000Y-125620000D02*
X100300000Y-125650000D01*
X100300000Y-125650000D02*
X100280000Y-125710000D01*
X100280000Y-125710000D02*
X100280000Y-126080000D01*
X100490000Y-125380000D02*
X100490000Y-126080000D01*
X101540000Y-125850000D02*
X101770000Y-125850000D01*
X101320000Y-125680000D02*
X101300000Y-125650000D01*
X101300000Y-125650000D02*
X101260000Y-125620000D01*
X101260000Y-125620000D02*
X101170000Y-125620000D01*
X101170000Y-125620000D02*
X101130000Y-125650000D01*
X101130000Y-125650000D02*
X101110000Y-125710000D01*
X101110000Y-125710000D02*
X101110000Y-126080000D01*
X101320000Y-125620000D02*
X101320000Y-126080000D01*
X101540000Y-125850000D02*
X101540000Y-125730000D01*
X101540000Y-125730000D02*
X101560000Y-125660000D01*
X101560000Y-125660000D02*
X101600000Y-125620000D01*
X101600000Y-125620000D02*
X101700000Y-125620000D01*
X101700000Y-125620000D02*
X101740000Y-125650000D01*
X101740000Y-125650000D02*
X101770000Y-125710000D01*
X101770000Y-125710000D02*
X101770000Y-125980000D01*
X101770000Y-125980000D02*
X101750000Y-126050000D01*
X101750000Y-126050000D02*
X101710000Y-126080000D01*
X101710000Y-126080000D02*
X101610000Y-126080000D01*
X101610000Y-126080000D02*
X101560000Y-126050000D01*
X102200000Y-125650000D02*
X102160000Y-125620000D01*
X102160000Y-125620000D02*
X102060000Y-125620000D01*
X102060000Y-125620000D02*
X102020000Y-125650000D01*
X102020000Y-125650000D02*
X101990000Y-125680000D01*
X101990000Y-125680000D02*
X101970000Y-125740000D01*
X101970000Y-125740000D02*
X101970000Y-125960000D01*
X101970000Y-125960000D02*
X101990000Y-126020000D01*
X101990000Y-126020000D02*
X102010000Y-126050000D01*
X102010000Y-126050000D02*
X102050000Y-126080000D01*
X102050000Y-126080000D02*
X102150000Y-126080000D01*
X102150000Y-126080000D02*
X102200000Y-126050000D01*
X102200000Y-126320000D02*
X102200000Y-125620000D01*
X102510000Y-125620000D02*
X102590000Y-125620000D01*
X102590000Y-125620000D02*
X102630000Y-125650000D01*
X102630000Y-125650000D02*
X102650000Y-125680000D01*
X102650000Y-125680000D02*
X102680000Y-125750000D01*
X102590000Y-126080000D02*
X102510000Y-126080000D01*
X102510000Y-126080000D02*
X102460000Y-126050000D01*
X102460000Y-126050000D02*
X102440000Y-126020000D01*
X102440000Y-126020000D02*
X102420000Y-125950000D01*
X102420000Y-125950000D02*
X102420000Y-125750000D01*
X102420000Y-125750000D02*
X102440000Y-125690000D01*
X102440000Y-125690000D02*
X102460000Y-125660000D01*
X102460000Y-125660000D02*
X102510000Y-125620000D01*
X102680000Y-125750000D02*
X102680000Y-125950000D01*
X102680000Y-125950000D02*
X102660000Y-126010000D01*
X102660000Y-126010000D02*
X102640000Y-126040000D01*
X102640000Y-126040000D02*
X102590000Y-126080000D01*
D13*
G36*
X101513840Y-125245360D02*
X101488440Y-125230120D01*
X101430020Y-125194560D01*
X101346200Y-125138680D01*
X101247140Y-125072640D01*
X101148080Y-125006600D01*
X101066800Y-124953260D01*
X101010920Y-124915160D01*
X100985520Y-124902460D01*
X100972820Y-124907540D01*
X100927100Y-124930400D01*
X100858520Y-124965960D01*
X100817880Y-124986280D01*
X100756920Y-125011680D01*
X100723900Y-125019300D01*
X100718820Y-125009140D01*
X100695960Y-124960880D01*
X100660400Y-124879600D01*
X100614680Y-124770380D01*
X100558800Y-124643380D01*
X100502920Y-124508760D01*
X100444500Y-124369060D01*
X100388620Y-124234440D01*
X100340360Y-124115060D01*
X100299720Y-124018540D01*
X100274320Y-123949960D01*
X100264160Y-123922020D01*
X100266700Y-123914400D01*
X100299720Y-123883920D01*
X100353060Y-123843280D01*
X100472440Y-123746760D01*
X100589280Y-123601980D01*
X100660400Y-123436880D01*
X100683260Y-123251460D01*
X100662940Y-123081280D01*
X100596900Y-122918720D01*
X100482600Y-122771400D01*
X100342900Y-122662180D01*
X100180340Y-122593600D01*
X100000000Y-122570740D01*
X99827280Y-122591060D01*
X99659640Y-122657100D01*
X99512320Y-122768860D01*
X99448820Y-122839980D01*
X99362460Y-122989840D01*
X99314200Y-123147320D01*
X99309120Y-123187960D01*
X99316740Y-123363220D01*
X99367540Y-123533400D01*
X99461520Y-123683260D01*
X99591060Y-123807720D01*
X99606300Y-123817880D01*
X99664720Y-123863600D01*
X99705360Y-123894080D01*
X99735840Y-123919480D01*
X99512320Y-124457960D01*
X99476760Y-124541780D01*
X99415800Y-124689100D01*
X99362460Y-124816100D01*
X99319280Y-124917700D01*
X99288800Y-124983740D01*
X99276100Y-125011680D01*
X99276100Y-125014220D01*
X99255780Y-125016760D01*
X99215140Y-125001520D01*
X99138940Y-124965960D01*
X99090680Y-124940560D01*
X99032260Y-124912620D01*
X99006860Y-124902460D01*
X98984000Y-124915160D01*
X98930660Y-124950720D01*
X98849380Y-125004060D01*
X98752860Y-125067560D01*
X98661420Y-125131060D01*
X98577600Y-125186940D01*
X98516640Y-125225040D01*
X98486160Y-125242820D01*
X98481080Y-125242820D01*
X98455680Y-125227580D01*
X98407420Y-125186940D01*
X98333760Y-125118360D01*
X98229620Y-125014220D01*
X98214380Y-124998980D01*
X98128020Y-124912620D01*
X98059440Y-124838960D01*
X98013720Y-124788160D01*
X97995940Y-124765300D01*
X97995940Y-124765300D01*
X98011180Y-124734820D01*
X98049280Y-124673860D01*
X98105160Y-124587500D01*
X98173740Y-124488440D01*
X98351540Y-124229360D01*
X98255020Y-123985520D01*
X98224540Y-123909320D01*
X98186440Y-123820420D01*
X98158500Y-123754380D01*
X98143260Y-123726440D01*
X98117860Y-123716280D01*
X98049280Y-123701040D01*
X97952760Y-123680720D01*
X97838460Y-123660400D01*
X97726700Y-123640080D01*
X97627640Y-123619760D01*
X97556520Y-123607060D01*
X97523500Y-123599440D01*
X97515880Y-123594360D01*
X97508260Y-123579120D01*
X97505720Y-123546100D01*
X97503180Y-123485140D01*
X97500640Y-123391160D01*
X97500640Y-123251460D01*
X97500640Y-123236220D01*
X97503180Y-123106680D01*
X97505720Y-123000000D01*
X97508260Y-122933960D01*
X97513340Y-122906020D01*
X97513340Y-122906020D01*
X97543820Y-122898400D01*
X97614940Y-122883160D01*
X97714000Y-122865380D01*
X97833380Y-122842520D01*
X97841000Y-122839980D01*
X97957840Y-122817120D01*
X98056900Y-122796800D01*
X98128020Y-122781560D01*
X98155960Y-122771400D01*
X98163580Y-122763780D01*
X98186440Y-122718060D01*
X98219460Y-122644400D01*
X98260100Y-122555500D01*
X98298200Y-122461520D01*
X98331220Y-122377700D01*
X98354080Y-122316740D01*
X98361700Y-122288800D01*
X98359160Y-122286260D01*
X98341380Y-122258320D01*
X98300740Y-122197360D01*
X98244860Y-122113540D01*
X98176280Y-122011940D01*
X98171200Y-122004320D01*
X98102620Y-121905260D01*
X98046740Y-121818900D01*
X98011180Y-121760480D01*
X97995940Y-121732540D01*
X97995940Y-121730000D01*
X98018800Y-121699520D01*
X98069600Y-121643640D01*
X98143260Y-121567440D01*
X98229620Y-121478540D01*
X98257560Y-121453140D01*
X98356620Y-121356620D01*
X98422660Y-121295660D01*
X98465840Y-121262640D01*
X98486160Y-121255020D01*
X98486160Y-121255020D01*
X98516640Y-121272800D01*
X98580140Y-121313440D01*
X98663960Y-121371860D01*
X98765560Y-121440440D01*
X98773180Y-121445520D01*
X98872240Y-121514100D01*
X98956060Y-121569980D01*
X99014480Y-121610620D01*
X99042420Y-121625860D01*
X99044960Y-121625860D01*
X99085600Y-121613160D01*
X99156720Y-121587760D01*
X99245620Y-121554740D01*
X99337060Y-121516640D01*
X99420880Y-121481080D01*
X99484380Y-121453140D01*
X99514860Y-121435360D01*
X99514860Y-121435360D01*
X99525020Y-121399800D01*
X99542800Y-121323600D01*
X99563120Y-121222000D01*
X99588520Y-121100080D01*
X99591060Y-121079760D01*
X99613920Y-120960380D01*
X99631700Y-120861320D01*
X99646940Y-120792740D01*
X99654560Y-120764800D01*
X99669800Y-120762260D01*
X99728220Y-120757180D01*
X99817120Y-120754640D01*
X99926340Y-120754640D01*
X100038100Y-120754640D01*
X100147320Y-120757180D01*
X100241300Y-120759720D01*
X100309880Y-120764800D01*
X100337820Y-120769880D01*
X100337820Y-120772420D01*
X100347980Y-120810520D01*
X100365760Y-120884180D01*
X100386080Y-120988320D01*
X100408940Y-121110240D01*
X100414020Y-121133100D01*
X100436880Y-121249940D01*
X100457200Y-121349000D01*
X100469900Y-121415040D01*
X100477520Y-121442980D01*
X100490220Y-121448060D01*
X100538480Y-121468380D01*
X100617220Y-121501400D01*
X100716280Y-121542040D01*
X100944880Y-121633480D01*
X101226820Y-121442980D01*
X101252220Y-121425200D01*
X101353820Y-121356620D01*
X101435100Y-121300740D01*
X101493520Y-121262640D01*
X101516380Y-121249940D01*
X101518920Y-121249940D01*
X101546860Y-121275340D01*
X101602740Y-121328680D01*
X101678940Y-121402340D01*
X101767840Y-121488700D01*
X101831340Y-121554740D01*
X101910080Y-121633480D01*
X101958340Y-121686820D01*
X101986280Y-121719840D01*
X101993900Y-121740160D01*
X101991360Y-121755400D01*
X101973580Y-121783340D01*
X101932940Y-121844300D01*
X101874520Y-121930660D01*
X101805940Y-122029720D01*
X101750060Y-122113540D01*
X101689100Y-122207520D01*
X101651000Y-122273560D01*
X101635760Y-122306580D01*
X101640840Y-122319280D01*
X101658620Y-122375160D01*
X101694180Y-122458980D01*
X101734820Y-122558040D01*
X101833880Y-122779020D01*
X101978660Y-122806960D01*
X102067560Y-122824740D01*
X102189480Y-122847600D01*
X102308860Y-122870460D01*
X102491740Y-122906020D01*
X102499360Y-123581660D01*
X102471420Y-123594360D01*
X102443480Y-123601980D01*
X102374900Y-123617220D01*
X102278380Y-123637540D01*
X102161540Y-123657860D01*
X102065020Y-123675640D01*
X101965960Y-123695960D01*
X101894840Y-123708660D01*
X101864360Y-123716280D01*
X101854200Y-123726440D01*
X101831340Y-123774700D01*
X101795780Y-123850900D01*
X101755140Y-123942340D01*
X101717040Y-124036320D01*
X101681480Y-124125220D01*
X101658620Y-124191260D01*
X101648460Y-124224280D01*
X101661160Y-124252220D01*
X101699260Y-124310640D01*
X101752600Y-124391920D01*
X101821180Y-124490980D01*
X101887220Y-124587500D01*
X101945640Y-124671320D01*
X101983740Y-124732280D01*
X102001520Y-124760220D01*
X101991360Y-124778000D01*
X101953260Y-124826260D01*
X101879600Y-124902460D01*
X101767840Y-125011680D01*
X101750060Y-125029460D01*
X101663700Y-125113280D01*
X101590040Y-125181860D01*
X101536700Y-125227580D01*
X101513840Y-125245360D01*
X101513840Y-125245360D01*
G37*
X101513840Y-125245360D02*
X101488440Y-125230120D01*
X101430020Y-125194560D01*
X101346200Y-125138680D01*
X101247140Y-125072640D01*
X101148080Y-125006600D01*
X101066800Y-124953260D01*
X101010920Y-124915160D01*
X100985520Y-124902460D01*
X100972820Y-124907540D01*
X100927100Y-124930400D01*
X100858520Y-124965960D01*
X100817880Y-124986280D01*
X100756920Y-125011680D01*
X100723900Y-125019300D01*
X100718820Y-125009140D01*
X100695960Y-124960880D01*
X100660400Y-124879600D01*
X100614680Y-124770380D01*
X100558800Y-124643380D01*
X100502920Y-124508760D01*
X100444500Y-124369060D01*
X100388620Y-124234440D01*
X100340360Y-124115060D01*
X100299720Y-124018540D01*
X100274320Y-123949960D01*
X100264160Y-123922020D01*
X100266700Y-123914400D01*
X100299720Y-123883920D01*
X100353060Y-123843280D01*
X100472440Y-123746760D01*
X100589280Y-123601980D01*
X100660400Y-123436880D01*
X100683260Y-123251460D01*
X100662940Y-123081280D01*
X100596900Y-122918720D01*
X100482600Y-122771400D01*
X100342900Y-122662180D01*
X100180340Y-122593600D01*
X100000000Y-122570740D01*
X99827280Y-122591060D01*
X99659640Y-122657100D01*
X99512320Y-122768860D01*
X99448820Y-122839980D01*
X99362460Y-122989840D01*
X99314200Y-123147320D01*
X99309120Y-123187960D01*
X99316740Y-123363220D01*
X99367540Y-123533400D01*
X99461520Y-123683260D01*
X99591060Y-123807720D01*
X99606300Y-123817880D01*
X99664720Y-123863600D01*
X99705360Y-123894080D01*
X99735840Y-123919480D01*
X99512320Y-124457960D01*
X99476760Y-124541780D01*
X99415800Y-124689100D01*
X99362460Y-124816100D01*
X99319280Y-124917700D01*
X99288800Y-124983740D01*
X99276100Y-125011680D01*
X99276100Y-125014220D01*
X99255780Y-125016760D01*
X99215140Y-125001520D01*
X99138940Y-124965960D01*
X99090680Y-124940560D01*
X99032260Y-124912620D01*
X99006860Y-124902460D01*
X98984000Y-124915160D01*
X98930660Y-124950720D01*
X98849380Y-125004060D01*
X98752860Y-125067560D01*
X98661420Y-125131060D01*
X98577600Y-125186940D01*
X98516640Y-125225040D01*
X98486160Y-125242820D01*
X98481080Y-125242820D01*
X98455680Y-125227580D01*
X98407420Y-125186940D01*
X98333760Y-125118360D01*
X98229620Y-125014220D01*
X98214380Y-124998980D01*
X98128020Y-124912620D01*
X98059440Y-124838960D01*
X98013720Y-124788160D01*
X97995940Y-124765300D01*
X97995940Y-124765300D01*
X98011180Y-124734820D01*
X98049280Y-124673860D01*
X98105160Y-124587500D01*
X98173740Y-124488440D01*
X98351540Y-124229360D01*
X98255020Y-123985520D01*
X98224540Y-123909320D01*
X98186440Y-123820420D01*
X98158500Y-123754380D01*
X98143260Y-123726440D01*
X98117860Y-123716280D01*
X98049280Y-123701040D01*
X97952760Y-123680720D01*
X97838460Y-123660400D01*
X97726700Y-123640080D01*
X97627640Y-123619760D01*
X97556520Y-123607060D01*
X97523500Y-123599440D01*
X97515880Y-123594360D01*
X97508260Y-123579120D01*
X97505720Y-123546100D01*
X97503180Y-123485140D01*
X97500640Y-123391160D01*
X97500640Y-123251460D01*
X97500640Y-123236220D01*
X97503180Y-123106680D01*
X97505720Y-123000000D01*
X97508260Y-122933960D01*
X97513340Y-122906020D01*
X97513340Y-122906020D01*
X97543820Y-122898400D01*
X97614940Y-122883160D01*
X97714000Y-122865380D01*
X97833380Y-122842520D01*
X97841000Y-122839980D01*
X97957840Y-122817120D01*
X98056900Y-122796800D01*
X98128020Y-122781560D01*
X98155960Y-122771400D01*
X98163580Y-122763780D01*
X98186440Y-122718060D01*
X98219460Y-122644400D01*
X98260100Y-122555500D01*
X98298200Y-122461520D01*
X98331220Y-122377700D01*
X98354080Y-122316740D01*
X98361700Y-122288800D01*
X98359160Y-122286260D01*
X98341380Y-122258320D01*
X98300740Y-122197360D01*
X98244860Y-122113540D01*
X98176280Y-122011940D01*
X98171200Y-122004320D01*
X98102620Y-121905260D01*
X98046740Y-121818900D01*
X98011180Y-121760480D01*
X97995940Y-121732540D01*
X97995940Y-121730000D01*
X98018800Y-121699520D01*
X98069600Y-121643640D01*
X98143260Y-121567440D01*
X98229620Y-121478540D01*
X98257560Y-121453140D01*
X98356620Y-121356620D01*
X98422660Y-121295660D01*
X98465840Y-121262640D01*
X98486160Y-121255020D01*
X98486160Y-121255020D01*
X98516640Y-121272800D01*
X98580140Y-121313440D01*
X98663960Y-121371860D01*
X98765560Y-121440440D01*
X98773180Y-121445520D01*
X98872240Y-121514100D01*
X98956060Y-121569980D01*
X99014480Y-121610620D01*
X99042420Y-121625860D01*
X99044960Y-121625860D01*
X99085600Y-121613160D01*
X99156720Y-121587760D01*
X99245620Y-121554740D01*
X99337060Y-121516640D01*
X99420880Y-121481080D01*
X99484380Y-121453140D01*
X99514860Y-121435360D01*
X99514860Y-121435360D01*
X99525020Y-121399800D01*
X99542800Y-121323600D01*
X99563120Y-121222000D01*
X99588520Y-121100080D01*
X99591060Y-121079760D01*
X99613920Y-120960380D01*
X99631700Y-120861320D01*
X99646940Y-120792740D01*
X99654560Y-120764800D01*
X99669800Y-120762260D01*
X99728220Y-120757180D01*
X99817120Y-120754640D01*
X99926340Y-120754640D01*
X100038100Y-120754640D01*
X100147320Y-120757180D01*
X100241300Y-120759720D01*
X100309880Y-120764800D01*
X100337820Y-120769880D01*
X100337820Y-120772420D01*
X100347980Y-120810520D01*
X100365760Y-120884180D01*
X100386080Y-120988320D01*
X100408940Y-121110240D01*
X100414020Y-121133100D01*
X100436880Y-121249940D01*
X100457200Y-121349000D01*
X100469900Y-121415040D01*
X100477520Y-121442980D01*
X100490220Y-121448060D01*
X100538480Y-121468380D01*
X100617220Y-121501400D01*
X100716280Y-121542040D01*
X100944880Y-121633480D01*
X101226820Y-121442980D01*
X101252220Y-121425200D01*
X101353820Y-121356620D01*
X101435100Y-121300740D01*
X101493520Y-121262640D01*
X101516380Y-121249940D01*
X101518920Y-121249940D01*
X101546860Y-121275340D01*
X101602740Y-121328680D01*
X101678940Y-121402340D01*
X101767840Y-121488700D01*
X101831340Y-121554740D01*
X101910080Y-121633480D01*
X101958340Y-121686820D01*
X101986280Y-121719840D01*
X101993900Y-121740160D01*
X101991360Y-121755400D01*
X101973580Y-121783340D01*
X101932940Y-121844300D01*
X101874520Y-121930660D01*
X101805940Y-122029720D01*
X101750060Y-122113540D01*
X101689100Y-122207520D01*
X101651000Y-122273560D01*
X101635760Y-122306580D01*
X101640840Y-122319280D01*
X101658620Y-122375160D01*
X101694180Y-122458980D01*
X101734820Y-122558040D01*
X101833880Y-122779020D01*
X101978660Y-122806960D01*
X102067560Y-122824740D01*
X102189480Y-122847600D01*
X102308860Y-122870460D01*
X102491740Y-122906020D01*
X102499360Y-123581660D01*
X102471420Y-123594360D01*
X102443480Y-123601980D01*
X102374900Y-123617220D01*
X102278380Y-123637540D01*
X102161540Y-123657860D01*
X102065020Y-123675640D01*
X101965960Y-123695960D01*
X101894840Y-123708660D01*
X101864360Y-123716280D01*
X101854200Y-123726440D01*
X101831340Y-123774700D01*
X101795780Y-123850900D01*
X101755140Y-123942340D01*
X101717040Y-124036320D01*
X101681480Y-124125220D01*
X101658620Y-124191260D01*
X101648460Y-124224280D01*
X101661160Y-124252220D01*
X101699260Y-124310640D01*
X101752600Y-124391920D01*
X101821180Y-124490980D01*
X101887220Y-124587500D01*
X101945640Y-124671320D01*
X101983740Y-124732280D01*
X102001520Y-124760220D01*
X101991360Y-124778000D01*
X101953260Y-124826260D01*
X101879600Y-124902460D01*
X101767840Y-125011680D01*
X101750060Y-125029460D01*
X101663700Y-125113280D01*
X101590040Y-125181860D01*
X101536700Y-125227580D01*
X101513840Y-125245360D01*
D14*
X103175000Y-113635000D02*
X105715000Y-113635000D01*
X103175000Y-111730000D02*
X104445000Y-111730000D01*
D11*
X98500000Y-110750000D02*
X101500000Y-110750000D01*
X98499220Y-110750521D02*
G75*
G03X101500000Y-110750000I1500780J-2249479D01*
G01*
D14*
X113203949Y-97305923D02*
X111407898Y-95509872D01*
X111856910Y-98652962D02*
X110958885Y-97754936D01*
D11*
X114469670Y-102651650D02*
X112348350Y-100530330D01*
X114470589Y-102651834D02*
G75*
G03X112348350Y-100530330I529411J2651834D01*
G01*
D14*
X82305923Y-101796051D02*
X80509872Y-103592102D01*
X83652962Y-103143090D02*
X82754936Y-104041115D01*
D11*
X87651650Y-100530330D02*
X85530330Y-102651650D01*
X87651834Y-100529411D02*
G75*
G03X85530330Y-102651650I-2651834J529411D01*
G01*
D15*
X102028571Y-89714285D02*
X102076190Y-89857142D01*
X102123809Y-89904761D01*
X102219047Y-89952380D01*
X102361904Y-89952380D01*
X102457142Y-89904761D01*
X102504761Y-89857142D01*
X102552380Y-89761904D01*
X102552380Y-89380952D01*
X101552380Y-89380952D01*
X101552380Y-89714285D01*
X101600000Y-89809523D01*
X101647619Y-89857142D01*
X101742857Y-89904761D01*
X101838095Y-89904761D01*
X101933333Y-89857142D01*
X101980952Y-89809523D01*
X102028571Y-89714285D01*
X102028571Y-89380952D01*
X101552380Y-90238095D02*
X101552380Y-90809523D01*
X102552380Y-90523809D02*
X101552380Y-90523809D01*
X102552380Y-91666666D02*
X102552380Y-91095238D01*
X102552380Y-91380952D02*
X101552380Y-91380952D01*
X101695238Y-91285714D01*
X101790476Y-91190476D01*
X101838095Y-91095238D01*
D16*
X96610476Y-112134761D02*
X96467619Y-112182380D01*
X96229523Y-112182380D01*
X96134285Y-112134761D01*
X96086666Y-112087142D01*
X96039047Y-111991904D01*
X96039047Y-111896666D01*
X96086666Y-111801428D01*
X96134285Y-111753809D01*
X96229523Y-111706190D01*
X96419999Y-111658571D01*
X96515238Y-111610952D01*
X96562857Y-111563333D01*
X96610476Y-111468095D01*
X96610476Y-111372857D01*
X96562857Y-111277619D01*
X96515238Y-111230000D01*
X96419999Y-111182380D01*
X96181904Y-111182380D01*
X96039047Y-111230000D01*
X95610476Y-112182380D02*
X95610476Y-111182380D01*
X95610476Y-111658571D02*
X95039047Y-111658571D01*
X95039047Y-112182380D02*
X95039047Y-111182380D01*
X93991428Y-112182380D02*
X94324761Y-111706190D01*
X94562857Y-112182380D02*
X94562857Y-111182380D01*
X94181904Y-111182380D01*
X94086666Y-111230000D01*
X94039047Y-111277619D01*
X93991428Y-111372857D01*
X93991428Y-111515714D01*
X94039047Y-111610952D01*
X94086666Y-111658571D01*
X94181904Y-111706190D01*
X94562857Y-111706190D01*
X93705714Y-111182380D02*
X93134285Y-111182380D01*
X93419999Y-112182380D02*
X93419999Y-111182380D01*
X96158095Y-114722380D02*
X96634285Y-114722380D01*
X96634285Y-113722380D01*
X95634285Y-113722380D02*
X95443809Y-113722380D01*
X95348571Y-113770000D01*
X95253333Y-113865238D01*
X95205714Y-114055714D01*
X95205714Y-114389047D01*
X95253333Y-114579523D01*
X95348571Y-114674761D01*
X95443809Y-114722380D01*
X95634285Y-114722380D01*
X95729523Y-114674761D01*
X95824761Y-114579523D01*
X95872380Y-114389047D01*
X95872380Y-114055714D01*
X95824761Y-113865238D01*
X95729523Y-113770000D01*
X95634285Y-113722380D01*
X94777142Y-114722380D02*
X94777142Y-113722380D01*
X94205714Y-114722380D01*
X94205714Y-113722380D01*
X93205714Y-113770000D02*
X93300952Y-113722380D01*
X93443809Y-113722380D01*
X93586666Y-113770000D01*
X93681904Y-113865238D01*
X93729523Y-113960476D01*
X93777142Y-114150952D01*
X93777142Y-114293809D01*
X93729523Y-114484285D01*
X93681904Y-114579523D01*
X93586666Y-114674761D01*
X93443809Y-114722380D01*
X93348571Y-114722380D01*
X93205714Y-114674761D01*
X93158095Y-114627142D01*
X93158095Y-114293809D01*
X93348571Y-114293809D01*
X118603214Y-105971685D02*
X118468527Y-105904341D01*
X118300168Y-105735982D01*
X118266496Y-105634967D01*
X118266496Y-105567624D01*
X118300168Y-105466608D01*
X118367512Y-105399265D01*
X118468527Y-105365593D01*
X118535870Y-105365593D01*
X118636886Y-105399265D01*
X118805244Y-105500280D01*
X118906260Y-105533952D01*
X118973603Y-105533952D01*
X119074618Y-105500280D01*
X119141962Y-105432937D01*
X119175634Y-105331921D01*
X119175634Y-105264578D01*
X119141962Y-105163563D01*
X118973603Y-104995204D01*
X118838916Y-104927860D01*
X117862435Y-105298250D02*
X118569542Y-104591143D01*
X118232825Y-104927860D02*
X117828764Y-104523799D01*
X117458374Y-104894189D02*
X118165481Y-104187082D01*
X116717596Y-104153410D02*
X117290015Y-104052395D01*
X117121657Y-104557471D02*
X117828764Y-103850364D01*
X117559389Y-103580990D01*
X117458374Y-103547318D01*
X117391031Y-103547318D01*
X117290015Y-103580990D01*
X117189000Y-103682005D01*
X117155328Y-103783021D01*
X117155328Y-103850364D01*
X117189000Y-103951379D01*
X117458374Y-104220753D01*
X117222672Y-103244273D02*
X116818611Y-102840212D01*
X116313535Y-103749349D02*
X117020641Y-103042242D01*
X120045711Y-103889424D02*
X120382429Y-104226141D01*
X121089536Y-103519034D01*
X120382429Y-102811928D02*
X120247742Y-102677241D01*
X120146727Y-102643569D01*
X120012040Y-102643569D01*
X119843681Y-102744584D01*
X119607979Y-102980286D01*
X119506963Y-103148645D01*
X119506963Y-103283332D01*
X119540635Y-103384347D01*
X119675322Y-103519034D01*
X119776337Y-103552706D01*
X119911024Y-103552706D01*
X120079383Y-103451691D01*
X120315085Y-103215989D01*
X120416101Y-103047630D01*
X120416101Y-102912943D01*
X120382429Y-102811928D01*
X119069231Y-102912943D02*
X119776337Y-102205836D01*
X118665170Y-102508882D01*
X119372276Y-101801775D01*
X118631498Y-101128340D02*
X118732513Y-101162012D01*
X118833528Y-101263027D01*
X118900872Y-101397714D01*
X118900872Y-101532401D01*
X118867200Y-101633416D01*
X118766185Y-101801775D01*
X118665170Y-101902790D01*
X118496811Y-102003806D01*
X118395796Y-102037477D01*
X118261109Y-102037477D01*
X118126422Y-101970134D01*
X118059078Y-101902790D01*
X117991735Y-101768103D01*
X117991735Y-101700760D01*
X118227437Y-101465058D01*
X118362124Y-101599745D01*
X90971685Y-96396785D02*
X90904341Y-96531472D01*
X90735982Y-96699831D01*
X90634967Y-96733503D01*
X90567624Y-96733503D01*
X90466608Y-96699831D01*
X90399265Y-96632487D01*
X90365593Y-96531472D01*
X90365593Y-96464129D01*
X90399265Y-96363113D01*
X90500280Y-96194755D01*
X90533952Y-96093739D01*
X90533952Y-96026396D01*
X90500280Y-95925381D01*
X90432937Y-95858037D01*
X90331921Y-95824365D01*
X90264578Y-95824365D01*
X90163563Y-95858037D01*
X89995204Y-96026396D01*
X89927860Y-96161083D01*
X90298250Y-97137564D02*
X89591143Y-96430457D01*
X89927860Y-96767174D02*
X89523799Y-97171235D01*
X89894189Y-97541625D02*
X89187082Y-96834518D01*
X89153410Y-98282403D02*
X89052395Y-97709984D01*
X89557471Y-97878342D02*
X88850364Y-97171235D01*
X88580990Y-97440610D01*
X88547318Y-97541625D01*
X88547318Y-97608968D01*
X88580990Y-97709984D01*
X88682005Y-97810999D01*
X88783021Y-97844671D01*
X88850364Y-97844671D01*
X88951379Y-97810999D01*
X89220753Y-97541625D01*
X88244273Y-97777327D02*
X87840212Y-98181388D01*
X88749349Y-98686464D02*
X88042242Y-97979358D01*
X88889424Y-94954288D02*
X89226141Y-94617570D01*
X88519034Y-93910463D01*
X87811928Y-94617570D02*
X87677241Y-94752257D01*
X87643569Y-94853272D01*
X87643569Y-94987959D01*
X87744584Y-95156318D01*
X87980286Y-95392020D01*
X88148645Y-95493036D01*
X88283332Y-95493036D01*
X88384347Y-95459364D01*
X88519034Y-95324677D01*
X88552706Y-95223662D01*
X88552706Y-95088975D01*
X88451691Y-94920616D01*
X88215989Y-94684914D01*
X88047630Y-94583898D01*
X87912943Y-94583898D01*
X87811928Y-94617570D01*
X87912943Y-95930768D02*
X87205836Y-95223662D01*
X87508882Y-96334829D01*
X86801775Y-95627723D01*
X86128340Y-96368501D02*
X86162012Y-96267486D01*
X86263027Y-96166471D01*
X86397714Y-96099127D01*
X86532401Y-96099127D01*
X86633416Y-96132799D01*
X86801775Y-96233814D01*
X86902790Y-96334829D01*
X87003806Y-96503188D01*
X87037477Y-96604203D01*
X87037477Y-96738890D01*
X86970134Y-96873577D01*
X86902790Y-96940921D01*
X86768103Y-97008264D01*
X86700760Y-97008264D01*
X86465058Y-96772562D01*
X86599745Y-96637875D01*
%LPC*%
D17*
X108100000Y-90500000D03*
X88200000Y-90500000D03*
X86000000Y-90500000D03*
X113000000Y-90500000D03*
D18*
X76000000Y-80000000D03*
X124000000Y-80000000D03*
D19*
X100000000Y-114270000D03*
X100000000Y-111730000D03*
D20*
X116039447Y-99243395D02*
X115756605Y-98960553D01*
X114243395Y-101039447D02*
X113960553Y-100756605D01*
X84243395Y-98960553D02*
X83960553Y-99243395D01*
X86039447Y-100756605D02*
X85756605Y-101039447D01*
D21*
X91873682Y-100626318D03*
X86126318Y-106373682D03*
X108126318Y-100626318D03*
X113873682Y-106373682D03*
X104064000Y-108000000D03*
X95936000Y-108000000D03*
X104500000Y-69000000D03*
X95500000Y-65000000D03*
X104500000Y-65000000D03*
X95500000Y-69000000D03*
M02*
